<svg version="1.1" id="Layer_1" xmlns="http://www.w3.org/2000/svg" xmlns:xlink="http://www.w3.org/1999/xlink" x="0px" y="0px"
	 width="100%" viewBox="0 0 1037 1037" enable-background="new 0 0 1037 1037" xml:space="preserve">
<path fill="#010101" opacity="1.000000" stroke="none" 
	d="
M708.000000,1038.000000 
	C472.028320,1038.000000 236.556625,1038.000000 1.042469,1038.000000 
	C1.042469,692.403198 1.042469,346.806396 1.042469,1.104804 
	C346.555237,1.104804 692.110474,1.104804 1037.832886,1.104804 
	C1037.832886,346.666595 1037.832886,692.333313 1037.832886,1038.000000 
	C928.139343,1038.000000 818.319641,1038.000000 708.000000,1038.000000 
M416.793274,394.841675 
	C416.793274,394.841675 416.706299,394.517914 416.424988,395.248352 
	C409.687653,404.325348 406.064606,414.570435 405.411957,425.795837 
	C403.543274,457.934692 418.668518,482.477966 451.306366,487.635345 
	C454.739746,488.177826 458.267731,488.308807 461.752167,488.312683 
	C500.704529,488.355896 539.656982,488.357300 578.609436,488.321899 
	C590.688354,488.310913 601.994202,485.595917 612.382507,478.207275 
	C612.723511,477.872894 613.064575,477.538483 614.032654,476.960388 
	C614.345215,476.644287 614.657715,476.328217 615.187683,476.099731 
	C615.187683,476.099731 615.307983,475.715607 615.778931,475.426971 
	C615.888733,475.279175 615.998474,475.131348 616.151917,475.108795 
	C616.151917,475.108795 616.158325,474.938782 616.625793,474.714966 
	C616.722717,474.571991 616.819702,474.429047 617.181824,474.344543 
	C617.388489,474.259369 617.460144,474.109528 618.044739,473.498871 
	C619.040894,472.360046 620.037048,471.221222 621.059387,470.169312 
	C621.059387,470.169312 621.038086,470.075470 621.545959,469.683411 
	C621.644897,469.493805 621.743774,469.304230 622.428650,468.772430 
	C622.735596,468.188538 623.042480,467.604645 623.644958,466.836273 
	C623.644958,466.836273 623.751221,466.504456 624.250549,466.164215 
	C624.564575,465.464233 624.878540,464.764221 625.117859,464.075165 
	C625.117859,464.075165 625.163391,464.135376 625.732300,463.859009 
	C626.810425,461.575836 627.888550,459.292694 629.236938,456.656799 
	C629.394836,456.393524 629.462280,456.108826 629.872131,455.376160 
	C630.234680,453.920746 630.597168,452.465332 631.193787,450.595734 
	C631.325806,450.294556 631.358154,449.983063 631.721558,449.203552 
	C631.757935,448.795746 631.794312,448.387909 631.955383,447.866486 
	C631.955383,447.866486 631.872986,447.719238 632.116028,447.413147 
	C632.105164,447.035706 632.094360,446.658234 632.415588,445.553497 
	C632.505554,445.031555 632.595520,444.509644 632.968994,443.528992 
	C633.003601,442.647858 633.038147,441.766754 633.310242,440.102142 
	C633.477417,437.946442 633.788086,435.790833 633.789978,433.634979 
	C633.814758,404.481812 633.811951,375.328583 633.760132,346.175476 
	C633.756042,343.864624 633.339050,341.554474 633.269958,338.833099 
	C633.148254,338.279480 633.026550,337.725830 632.965942,337.096344 
	C632.965942,337.096344 632.889526,337.035980 632.976013,336.502838 
	C632.905151,336.337372 632.834229,336.171906 632.772522,335.244385 
	C632.595703,334.772400 632.418884,334.300385 632.369934,333.384583 
	C632.229187,332.953674 632.088379,332.522736 631.992676,332.046234 
	C631.992676,332.046234 631.936401,332.015442 632.007019,331.356354 
	C631.800415,330.977814 631.593872,330.599274 631.426331,329.818085 
	C631.376648,329.543945 631.254944,329.306763 631.216675,328.901184 
	C631.246338,328.607941 631.138000,328.401947 630.776917,327.387695 
	C630.520752,326.843933 630.264526,326.300201 630.081787,325.168030 
	C629.344116,323.563354 628.606445,321.958679 627.696716,319.615448 
	C627.153564,318.771545 626.610413,317.927673 626.077820,316.604065 
	C625.774353,316.261871 625.470886,315.919647 625.117798,315.236542 
	C625.117798,315.236542 624.867126,315.000275 624.782898,314.397217 
	C624.256592,313.796570 623.730347,313.195892 623.081787,312.098877 
	C622.744324,311.728729 622.406921,311.358612 621.974060,310.447388 
	C621.575012,310.076935 621.176025,309.706451 620.597778,308.989258 
	C620.597778,308.989258 620.232971,308.850433 620.043762,308.207977 
	C618.950317,307.156036 617.856934,306.104126 616.474060,304.514984 
	C615.334229,303.657959 614.194397,302.800934 612.708130,301.433197 
	C611.116882,300.546326 609.525696,299.659424 607.414551,298.252441 
	C606.731018,298.003357 606.047546,297.754242 605.354309,297.588043 
	C605.354309,297.588043 605.434265,297.564270 605.201233,297.133301 
	C604.933594,296.914246 604.627930,296.823578 603.837402,296.352966 
	C595.431152,294.611084 587.036499,291.428314 578.616821,291.360992 
	C523.520569,290.920593 468.418854,291.144623 413.318970,291.212708 
	C411.629669,291.214783 409.941193,291.884796 408.012573,292.982391 
	C408.012573,302.727997 408.012573,312.473602 408.012573,322.572784 
	C410.188019,322.572784 411.669769,322.573700 413.151489,322.572632 
	C465.270050,322.535828 517.388733,322.436646 569.506958,322.564026 
	C574.397095,322.576019 579.283691,324.017242 584.554504,325.201324 
	C585.040161,325.452332 585.525879,325.703339 586.415649,326.509766 
	C587.554382,327.658783 588.693115,328.807831 589.937500,330.641693 
	C591.261047,336.748077 593.199951,342.799866 593.747864,348.975067 
	C594.391296,356.227600 593.642944,363.592712 593.857666,370.898438 
	C593.979004,375.027466 592.458496,376.425323 588.384338,376.380188 
	C574.258057,376.223663 560.128723,376.285950 546.001038,376.361206 
	C540.204773,376.392090 534.409912,376.668304 528.216125,376.669647 
	C527.918457,376.615112 527.642212,376.669495 526.694885,376.550659 
	C510.336060,376.643524 493.977234,376.736420 477.073273,376.657440 
	C476.511047,376.714294 475.948792,376.771179 474.700928,376.547546 
	C470.032013,376.650146 465.363129,376.752747 459.890533,376.698029 
	C458.259125,376.798187 456.627747,376.898346 454.298126,376.787140 
	C447.790680,378.486389 441.283234,380.185638 434.161560,381.931366 
	C433.302460,382.455627 432.443329,382.979889 431.518524,383.623718 
	C431.518524,383.623718 431.558624,383.488831 430.792053,383.638733 
	C430.139954,384.048065 429.487885,384.457428 428.675751,384.720459 
	C428.675751,384.720459 428.477631,385.029266 427.745056,385.296875 
	C427.137238,385.774506 426.529449,386.252136 425.696991,386.640686 
	C425.696991,386.640686 425.477814,387.014008 424.770874,387.364990 
	C423.754333,388.195282 422.737762,389.025543 421.769135,389.959015 
	C421.769135,389.959015 421.895142,389.799377 421.146515,390.382690 
	C420.734985,390.859802 420.323486,391.336884 419.731140,391.725800 
	C419.731140,391.725800 419.648956,392.052521 419.254791,392.252655 
	C419.254791,392.252655 419.054443,392.646667 418.809204,392.630859 
	C418.809204,392.630859 418.653107,393.050171 418.247162,393.274231 
	C418.247162,393.274231 418.049438,393.693634 417.856873,393.633545 
	C417.856873,393.633545 417.847656,393.959656 417.250214,394.293243 
	C417.055847,394.412567 416.861450,394.531891 416.793274,394.841675 
M678.592285,386.571716 
	C678.592285,386.571716 678.514832,386.562897 678.673584,387.097229 
	C679.102905,387.423187 679.532288,387.749146 680.312256,388.739105 
	C681.139709,389.673859 681.967163,390.608612 682.713318,391.442017 
	C682.713318,391.442017 682.518860,391.318298 683.254639,391.576172 
	C690.451538,396.930054 698.392395,400.552124 707.591614,402.123505 
	C707.937195,402.104584 708.282837,402.085693 709.555908,402.412506 
	C711.184753,402.583679 712.813660,402.754822 715.152832,403.144958 
	C719.967712,403.258148 724.782593,403.467468 729.597534,403.469452 
	C770.630859,403.486572 811.664185,403.450836 852.697510,403.483032 
	C856.333740,403.485870 859.969788,403.858002 863.511169,404.879028 
	C863.420776,415.840790 863.638000,426.816254 863.150757,437.760345 
	C862.694641,448.007965 857.460388,454.876343 846.149048,457.100983 
	C790.087036,457.124298 734.024963,457.144135 677.962952,457.185211 
	C675.979614,457.186676 673.996399,457.398895 671.559265,457.275116 
	C670.979675,458.787842 669.936523,460.289490 669.899963,461.815216 
	C669.732666,468.810699 670.165771,475.831879 669.751038,482.806213 
	C669.462708,487.654022 671.327698,488.541138 675.730225,488.507935 
	C701.061829,488.316956 726.395630,488.416840 751.728638,488.414886 
	C783.228210,488.412445 814.727905,488.436005 846.227417,488.387573 
	C858.063843,488.369354 869.387695,486.326111 879.223633,479.257690 
	C879.223633,479.257690 879.222595,479.338379 879.768433,479.229614 
	C879.900940,479.099762 880.033386,478.969879 880.566284,478.747223 
	C880.566284,478.747223 880.804077,478.411987 881.417053,478.213928 
	C882.992554,476.837585 884.568054,475.461243 886.060730,474.069580 
	C886.060730,474.069580 886.047058,474.152740 886.708496,473.977417 
	C894.938965,466.444855 900.080933,457.255890 901.994629,445.484161 
	C902.012024,444.989716 902.029480,444.495239 902.255798,443.503937 
	C902.228699,443.326324 902.201538,443.148712 902.358948,442.723755 
	C902.358948,442.723755 902.242554,442.437897 902.597656,441.761383 
	C902.854187,438.120758 903.329956,434.480316 903.333679,430.839447 
	C903.377319,387.915802 903.356323,344.992065 903.328186,302.068359 
	C903.326294,299.248566 903.127563,296.428864 903.216003,293.166718 
	C902.780090,292.677460 902.344177,292.188202 901.171326,291.400574 
	C888.778320,291.400574 876.385376,291.400574 863.802124,291.400574 
	C863.802124,318.092041 863.802124,344.029724 863.527832,371.268890 
	C862.901978,372.395172 862.276184,373.521484 860.957703,374.375580 
	C828.043213,374.336182 795.128723,374.258881 762.214233,374.276306 
	C749.262573,374.283142 736.311035,374.501495 722.610657,374.254333 
	C721.519043,374.128998 720.427490,374.003662 718.766602,373.514740 
	C717.712769,373.117126 716.658875,372.719513 715.064453,371.947540 
	C706.003784,367.016785 704.337646,358.391937 704.218384,349.311859 
	C704.010498,333.486298 704.184631,317.655670 704.197449,301.827179 
	C704.200073,298.526642 704.197815,295.226105 704.197815,291.516022 
	C700.938232,291.516022 698.156738,291.499969 695.375427,291.518982 
	C685.584412,291.585907 675.793518,291.664886 665.620911,291.577576 
	C665.338501,292.067596 665.056091,292.557648 664.484924,293.820343 
	C664.542236,299.218658 664.599609,304.617004 664.394714,310.915894 
	C664.407227,324.197906 664.030884,337.495178 664.550659,350.757324 
	C664.995605,362.110748 667.168274,373.186859 675.140869,382.559448 
	C675.140869,382.559448 675.452698,382.770966 675.576904,383.368805 
	C676.256226,384.064575 676.935547,384.760345 677.644287,385.339874 
	C677.644287,385.339874 677.526123,385.319244 677.616455,385.889252 
	C677.921570,386.100342 678.226746,386.311432 678.592285,386.571716 
M633.765930,656.500000 
	C633.756653,641.170044 633.913513,625.837341 633.657898,610.511475 
	C633.552979,604.216614 633.136902,597.816895 631.864685,591.671448 
	C627.354675,569.887329 611.803955,554.801697 589.779968,551.912109 
	C578.619995,550.447815 567.183899,550.851013 555.871704,550.824219 
	C508.549225,550.712097 461.226196,550.813232 413.903961,550.653870 
	C409.360107,550.638611 407.687622,551.872742 407.967102,556.535217 
	C408.335327,562.678589 408.063629,568.860229 408.073242,575.025391 
	C408.083862,581.800110 408.086945,581.799561 414.957489,581.798401 
	C467.279144,581.789551 519.600769,581.756226 571.922424,581.789368 
	C585.426270,581.797913 592.100769,587.464172 593.347290,600.910706 
	C594.174927,609.838928 593.842468,618.878967 593.932922,627.869934 
	C594.024719,636.996643 594.733582,636.034424 585.542603,636.034729 
	C543.385376,636.036011 501.227264,635.877563 459.071167,636.096741 
	C428.389923,636.256287 408.212036,655.097412 405.479828,685.488708 
	C402.307098,720.780396 424.076538,746.990845 458.302063,747.509399 
	C499.283020,748.130310 540.286804,748.062500 581.269348,747.483887 
	C610.341919,747.073425 630.677368,727.911560 633.200134,698.960388 
	C634.396667,685.228210 633.636414,671.325439 633.765930,656.500000 
M135.830246,633.500000 
	C135.833817,669.313171 135.836548,705.126404 135.841675,740.939575 
	C135.842636,747.724670 135.847061,747.739197 142.723389,747.739624 
	C184.866318,747.742065 227.009323,747.789917 269.152130,747.711304 
	C287.969055,747.676208 306.832275,748.155579 325.591003,747.020691 
	C352.463196,745.395020 373.210541,724.279846 373.979187,697.446228 
	C374.870667,666.323730 374.571259,635.161804 374.451355,604.018250 
	C374.405426,592.089050 370.833984,580.943726 363.647675,571.309753 
	C352.845703,556.828552 337.747437,550.874329 320.153381,550.843018 
	C260.687073,550.737366 201.220398,550.832458 141.754242,550.692322 
	C137.249222,550.681702 135.713516,551.882690 135.749283,556.543579 
	C135.943542,581.861084 135.834961,607.180969 135.830246,633.500000 
M898.320251,550.760620 
	C888.820984,550.767212 879.312500,551.025574 869.826416,550.675110 
	C865.024048,550.497620 863.556580,551.924622 863.605713,556.798828 
	C863.840881,580.129272 863.709961,603.463501 863.705750,626.796387 
	C863.704468,633.762207 863.699402,633.777527 856.960510,633.778564 
	C847.794006,633.779968 838.627563,633.743042 829.461060,633.743469 
	C795.461731,633.745117 761.462341,633.801147 727.463135,633.740662 
	C713.083862,633.715088 705.262085,626.273010 704.203552,611.891541 
	C704.057068,609.901184 704.127930,607.893555 704.126831,605.893921 
	C704.117676,589.227600 704.095093,572.561218 704.129761,555.895020 
	C704.135742,553.035950 704.191895,550.628052 700.115112,550.693359 
	C689.451355,550.864197 678.782715,550.812439 668.117065,550.723572 
	C665.202820,550.699280 664.363586,552.079956 664.394348,554.699036 
	C664.632935,575.023987 663.843323,595.420471 665.302795,615.655518 
	C666.885376,637.597961 678.648438,653.168640 700.326172,659.446838 
	C707.882996,661.635437 716.070496,662.418030 723.981018,662.482422 
	C761.644470,662.789001 799.311768,662.627441 836.977661,662.631287 
	C844.310791,662.632080 851.643921,662.636597 858.977051,662.621155 
	C861.507019,662.615845 863.782654,662.917053 863.693054,666.253418 
	C863.393433,677.406921 863.673645,688.618530 862.589233,699.695984 
	C861.587708,709.927124 854.713684,715.674805 844.423767,716.232849 
	C836.609436,716.656677 828.767334,716.677429 820.937378,716.684265 
	C772.604980,716.726257 724.272461,716.768372 675.940491,716.629028 
	C671.387512,716.615906 669.738831,717.873047 669.981873,722.530945 
	C670.328674,729.178833 670.224854,735.865723 669.975464,742.523376 
	C669.829529,746.419739 671.189331,747.777039 675.119080,747.769531 
	C732.451050,747.660400 789.785889,747.982849 847.114502,747.522888 
	C881.530273,747.246826 902.771362,725.383118 903.044861,691.105530 
	C903.258911,664.274353 903.122925,637.440369 903.127136,610.607605 
	C903.130005,592.441284 903.105835,574.274963 903.095276,556.108643 
	C903.093689,553.414551 903.480225,550.449280 898.320251,550.760620 
M135.648636,455.499512 
	C135.639130,464.993225 135.761047,474.489807 135.552475,483.979126 
	C135.474060,487.547028 136.756927,488.682068 140.197495,488.497131 
	C144.682632,488.256073 149.188980,488.401581 153.686234,488.396729 
	C160.792526,488.389069 167.898834,488.394714 175.523575,488.394714 
	C175.523575,486.084991 175.525406,484.459930 175.523285,482.834900 
	C175.493164,459.682465 175.464584,436.529999 175.430817,413.377563 
	C175.419281,405.471191 175.413208,405.462891 183.257202,405.456146 
	C228.729233,405.417053 274.203796,405.661316 319.672424,405.250916 
	C351.775665,404.961182 372.564850,385.048798 374.424530,353.021667 
	C375.619507,332.442535 370.645355,313.920349 352.774384,301.061890 
	C341.703644,293.096344 329.025024,291.212982 315.774261,291.227264 
	C257.809875,291.289886 199.845154,291.332001 141.881378,291.136139 
	C136.678619,291.118530 135.530960,292.635254 135.547226,297.595032 
	C135.718719,349.896057 135.651093,402.197845 135.648636,455.499512 
M992.954651,988.346741 
	C997.051697,986.001465 1001.148743,983.656189 1006.142883,980.797363 
	C993.374878,977.062134 985.500549,968.973816 981.124390,956.769470 
	C977.246826,969.407349 968.801147,976.937439 956.790222,981.327454 
	C969.218811,985.420837 977.034912,993.591431 980.541077,1005.106506 
	C984.690186,999.398315 988.540039,994.101929 992.954651,988.346741 
z"/>
<path fill="#485A63" opacity="1.000000" stroke="none" 
	d="
M633.764282,657.000000 
	C633.636414,671.325439 634.396667,685.228210 633.200134,698.960388 
	C630.677368,727.911560 610.341919,747.073425 581.269348,747.483887 
	C540.286804,748.062500 499.283020,748.130310 458.302063,747.509399 
	C424.076538,746.990845 402.307098,720.780396 405.479828,685.488708 
	C408.212036,655.097412 428.389923,636.256287 459.071167,636.096741 
	C501.227264,635.877563 543.385376,636.036011 585.542603,636.034729 
	C594.733582,636.034424 594.024719,636.996643 593.932922,627.869934 
	C593.842468,618.878967 594.174927,609.838928 593.347290,600.910706 
	C592.100769,587.464172 585.426270,581.797913 571.922424,581.789368 
	C519.600769,581.756226 467.279144,581.789551 414.957489,581.798401 
	C408.086945,581.799561 408.083862,581.800110 408.073242,575.025391 
	C408.063629,568.860229 408.335327,562.678589 407.967102,556.535217 
	C407.687622,551.872742 409.360107,550.638611 413.903961,550.653870 
	C461.226196,550.813232 508.549225,550.712097 555.871704,550.824219 
	C567.183899,550.851013 578.619995,550.447815 589.779968,551.912109 
	C611.803955,554.801697 627.354675,569.887329 631.864685,591.671448 
	C633.136902,597.816895 633.552979,604.216614 633.657898,610.511475 
	C633.913513,625.837341 633.756653,641.170044 633.764282,657.000000 
M554.500000,662.883240 
	C525.196899,662.898560 495.893585,662.858276 466.590729,662.959900 
	C456.511475,662.994812 449.387512,667.998047 446.711029,677.295288 
	C444.085632,686.415039 443.885498,695.734009 447.060913,704.829102 
	C450.356781,714.269287 455.833954,718.105408 465.826355,718.195923 
	C473.484131,718.265320 481.143524,718.138550 488.802185,718.136902 
	C517.272766,718.130737 545.743530,718.083801 574.213806,718.180542 
	C582.093628,718.207275 587.877319,714.886902 590.804504,707.730164 
	C592.527771,703.516724 593.599915,698.809570 593.838928,694.265259 
	C594.292908,685.632507 593.775635,676.953186 593.989990,668.301392 
	C594.093140,664.135681 592.527100,662.794128 588.464844,662.861267 
	C577.479431,663.042725 566.488647,662.900330 554.500000,662.883240 
z"/>
<path fill="#485B64" opacity="1.000000" stroke="none" 
	d="
M135.830444,633.000000 
	C135.834961,607.180969 135.943542,581.861084 135.749283,556.543579 
	C135.713516,551.882690 137.249222,550.681702 141.754242,550.692322 
	C201.220398,550.832458 260.687073,550.737366 320.153381,550.843018 
	C337.747437,550.874329 352.845703,556.828552 363.647675,571.309753 
	C370.833984,580.943726 374.405426,592.089050 374.451355,604.018250 
	C374.571259,635.161804 374.870667,666.323730 373.979187,697.446228 
	C373.210541,724.279846 352.463196,745.395020 325.591003,747.020691 
	C306.832275,748.155579 287.969055,747.676208 269.152130,747.711304 
	C227.009323,747.789917 184.866318,747.742065 142.723389,747.739624 
	C135.847061,747.739197 135.842636,747.724670 135.841675,740.939575 
	C135.836548,705.126404 135.833817,669.313171 135.830444,633.000000 
M226.499863,581.771973 
	C211.172577,581.774597 195.844696,581.852112 180.518463,581.725952 
	C176.789993,581.695251 175.203110,582.720337 175.214615,586.798950 
	C175.332184,628.448853 175.314514,670.099304 175.221802,711.749329 
	C175.213760,715.362549 176.303009,716.749023 180.057510,716.741455 
	C224.373138,716.651978 268.689362,716.780396 313.004608,716.627380 
	C325.807007,716.583130 332.125305,710.763977 334.277039,698.016907 
	C334.717773,695.405762 334.875732,692.718384 334.878052,690.065979 
	C334.901031,663.743042 334.881287,637.420044 334.820892,611.097229 
	C334.813629,607.940308 334.672821,604.761963 334.287415,601.631287 
	C332.511749,587.207214 326.352844,581.742615 311.966522,581.739929 
	C283.810974,581.734619 255.655411,581.757446 226.499863,581.771973 
z"/>
<path fill="#485B63" opacity="1.000000" stroke="none" 
	d="
M898.796875,550.763489 
	C903.480225,550.449280 903.093689,553.414551 903.095276,556.108643 
	C903.105835,574.274963 903.130005,592.441284 903.127136,610.607605 
	C903.122925,637.440369 903.258911,664.274353 903.044861,691.105530 
	C902.771362,725.383118 881.530273,747.246826 847.114502,747.522888 
	C789.785889,747.982849 732.451050,747.660400 675.119080,747.769531 
	C671.189331,747.777039 669.829529,746.419739 669.975464,742.523376 
	C670.224854,735.865723 670.328674,729.178833 669.981873,722.530945 
	C669.738831,717.873047 671.387512,716.615906 675.940491,716.629028 
	C724.272461,716.768372 772.604980,716.726257 820.937378,716.684265 
	C828.767334,716.677429 836.609436,716.656677 844.423767,716.232849 
	C854.713684,715.674805 861.587708,709.927124 862.589233,699.695984 
	C863.673645,688.618530 863.393433,677.406921 863.693054,666.253418 
	C863.782654,662.917053 861.507019,662.615845 858.977051,662.621155 
	C851.643921,662.636597 844.310791,662.632080 836.977661,662.631287 
	C799.311768,662.627441 761.644470,662.789001 723.981018,662.482422 
	C716.070496,662.418030 707.882996,661.635437 700.326172,659.446838 
	C678.648438,653.168640 666.885376,637.597961 665.302795,615.655518 
	C663.843323,595.420471 664.632935,575.023987 664.394348,554.699036 
	C664.363586,552.079956 665.202820,550.699280 668.117065,550.723572 
	C678.782715,550.812439 689.451355,550.864197 700.115112,550.693359 
	C704.191895,550.628052 704.135742,553.035950 704.129761,555.895020 
	C704.095093,572.561218 704.117676,589.227600 704.126831,605.893921 
	C704.127930,607.893555 704.057068,609.901184 704.203552,611.891541 
	C705.262085,626.273010 713.083862,633.715088 727.463135,633.740662 
	C761.462341,633.801147 795.461731,633.745117 829.461060,633.743469 
	C838.627563,633.743042 847.794006,633.779968 856.960510,633.778564 
	C863.699402,633.777527 863.704468,633.762207 863.705750,626.796387 
	C863.709961,603.463501 863.840881,580.129272 863.605713,556.798828 
	C863.556580,551.924622 865.024048,550.497620 869.826416,550.675110 
	C879.312500,551.025574 888.820984,550.767212 898.796875,550.763489 
z"/>
<path fill="#F09026" opacity="1.000000" stroke="none" 
	d="
M623.751221,466.504456 
	C623.751221,466.504456 623.644958,466.836273 623.213928,466.995667 
	C622.466614,467.372772 622.150391,467.590485 621.742554,467.909668 
	C621.471619,468.241150 621.442017,468.485168 621.598877,468.861328 
	C621.635498,468.979492 621.842712,469.114655 621.842712,469.114655 
	C621.743774,469.304230 621.644897,469.493805 621.302063,469.889709 
	C621.058167,470.095978 621.033203,470.082397 621.033203,470.082397 
	C620.037048,471.221222 619.040894,472.360046 617.592224,473.688019 
	C616.949036,473.950378 616.874756,474.086670 616.916748,474.286072 
	C616.819702,474.429047 616.722717,474.571991 616.374634,474.839294 
	C616.123535,474.963623 616.108276,474.983551 616.108276,474.983551 
	C615.998474,475.131348 615.888733,475.279175 615.508423,475.482971 
	C615.237915,475.538940 615.052795,475.492950 614.784424,475.394958 
	C613.630676,475.815186 612.745300,476.333405 611.503784,476.906769 
	C603.555908,480.717346 596.098877,484.879211 587.311340,485.130615 
	C576.183472,485.448975 565.053345,486.045532 553.926941,485.987152 
	C519.994934,485.809082 486.050110,485.847534 452.139374,484.831116 
	C436.202576,484.353455 423.939301,475.919525 415.506378,462.200195 
	C408.460938,450.738068 407.386444,438.110931 408.107025,425.143921 
	C408.993835,409.186096 415.780396,396.483368 429.126556,387.388519 
	C430.285095,386.599060 430.764008,384.812317 431.558624,383.488831 
	C431.558624,383.488831 431.518524,383.623718 431.953918,383.683411 
	C434.659760,382.871918 436.930237,382.000763 439.374146,381.111389 
	C439.547607,381.093201 439.890320,381.028381 440.301575,381.032593 
	C442.852509,380.373932 444.992188,379.711090 447.318115,379.039948 
	C447.504364,379.031647 447.875732,378.998535 448.352081,379.008911 
	C494.940857,378.997986 541.053345,379.001984 587.165527,378.880157 
	C589.449341,378.874115 591.730286,377.772797 594.308105,376.969238 
	C595.003479,374.862518 595.403259,372.968048 595.850220,370.608582 
	C595.885803,366.407166 595.874268,362.670746 595.854736,358.623840 
	C595.853516,357.899261 595.860291,357.485229 595.904053,356.614746 
	C595.923767,353.421051 595.906555,350.683838 595.891052,347.543121 
	C595.632629,345.098022 595.372498,343.056396 595.094788,340.625610 
	C594.997620,339.460907 594.917969,338.685303 594.717163,337.757751 
	C594.438721,337.399475 594.270264,337.202728 594.019165,336.722382 
	C593.668396,335.896332 593.389038,335.363495 593.099121,334.657593 
	C593.088623,334.484497 593.036072,334.141693 593.036377,333.740570 
	C592.593323,328.987152 590.835571,325.718872 586.074585,324.924072 
	C586.059814,324.933197 586.032654,324.944275 585.841980,324.754089 
	C585.167175,324.343689 584.683044,324.123444 584.152100,323.875092 
	C584.105225,323.846954 583.997253,323.864227 583.843567,323.675385 
	C583.450134,323.256653 583.174500,323.084198 582.690674,322.929077 
	C582.518494,322.889008 582.166992,322.849915 581.907410,322.679199 
	C581.055176,322.334991 580.462585,322.161530 579.690063,321.968903 
	C579.510254,321.949738 579.148926,321.935303 578.818542,321.724182 
	C575.566956,321.026703 572.643738,320.108978 569.724854,320.122772 
	C548.092896,320.224823 526.462097,320.666901 504.830505,320.691925 
	C487.737579,320.711700 470.644714,320.230438 453.550812,320.085175 
	C441.088104,319.979248 428.621857,320.162598 416.162415,319.932953 
	C414.451385,319.901367 411.453827,318.409271 411.297455,317.281860 
	C410.501648,311.545654 410.225861,305.707733 410.203430,299.903748 
	C410.187378,295.744110 412.463501,293.795593 416.935028,293.892365 
	C477.652893,295.206543 538.430054,291.416565 599.283936,296.055664 
	C599.456665,296.086884 599.806152,296.120209 600.031860,296.425385 
	C601.983154,297.008453 603.708740,297.286346 605.434265,297.564270 
	C605.434265,297.564270 605.354309,297.588043 605.370728,297.894043 
	C606.253052,298.810272 607.118958,299.420563 607.995239,300.016052 
	C608.005554,300.001282 607.971680,300.012390 608.108032,300.314880 
	C609.212463,301.067963 610.180481,301.518494 611.317139,302.017487 
	C611.485779,302.065918 611.827087,302.147278 611.999023,302.317505 
	C612.405640,302.709381 612.666809,302.893433 612.963989,303.035400 
	C612.973450,303.030823 612.969788,303.027893 613.128601,303.233826 
	C613.572205,303.637421 613.857056,303.835144 614.274902,304.161835 
	C614.585266,304.459442 614.750549,304.639099 614.984619,305.168213 
	C616.787903,306.621246 618.510437,307.735840 620.232971,308.850433 
	C620.232971,308.850433 620.597778,308.989258 620.666992,309.435272 
	C620.786438,310.236877 620.836731,310.592468 620.930176,311.278168 
	C621.603943,312.446564 622.234558,313.284821 622.914917,314.486023 
	C631.234619,329.209534 631.300354,344.957764 631.132202,360.872070 
	C630.868225,385.855835 631.269226,410.847565 630.898132,435.828613 
	C630.808533,441.859985 628.833496,447.869690 627.654236,453.875397 
	C627.176453,456.308624 626.508057,458.704468 625.891602,461.297302 
	C625.856689,461.477295 625.814148,461.841492 625.637817,462.027405 
	C625.289062,462.507599 625.116516,462.801849 624.963928,463.363281 
	C625.043762,463.798798 625.103577,463.967102 625.163391,464.135376 
	C625.163391,464.135376 625.117859,464.075165 624.887024,464.207642 
	C624.354553,465.061554 624.052917,465.783020 623.751221,466.504456 
M445.547729,448.780975 
	C449.569824,457.239075 456.499786,460.952667 465.620483,460.957458 
	C501.104553,460.976166 536.588623,460.981323 572.072693,460.952698 
	C585.424683,460.941925 591.640015,456.271606 595.195251,443.451080 
	C595.849304,441.092407 595.854858,438.522064 595.935669,436.042084 
	C596.195557,428.061157 596.697205,420.065857 596.445679,412.096954 
	C596.208069,404.568634 596.347229,400.858124 585.825500,401.053864 
	C579.497192,401.171570 573.164917,401.078064 566.834412,401.078278 
	C534.015808,401.079437 501.197205,401.064850 468.378601,401.089447 
	C456.770630,401.098145 445.046814,407.304077 443.466400,419.552216 
	C442.227081,429.156830 441.630798,438.751984 445.547729,448.780975 
z"/>
<path fill="#F09026" opacity="1.000000" stroke="none" 
	d="
M675.452698,382.770996 
	C675.452698,382.770966 675.140869,382.559448 675.186523,382.301697 
	C675.232178,382.043915 675.294189,381.831421 675.444458,381.723602 
	C675.765381,381.430634 675.893250,381.219543 675.859497,380.659973 
	C670.675049,372.822876 668.683411,364.184662 668.072205,355.463074 
	C667.159607,342.441498 667.290161,329.348083 666.894104,316.287750 
	C666.830078,314.177429 666.336487,312.080078 666.048340,309.515320 
	C666.073303,304.742157 666.091370,300.430389 666.400146,295.997253 
	C667.467407,294.956238 668.243896,294.036560 669.487671,293.111084 
	C676.740051,293.088593 683.527710,292.953217 690.309204,293.100769 
	C694.223511,293.185913 698.127991,293.727783 702.035034,294.414185 
	C702.332031,295.878113 702.630859,296.991913 702.911987,298.567505 
	C702.904785,312.974792 702.915283,326.920288 702.749512,341.214539 
	C702.691711,344.086090 702.810364,346.608978 702.910278,349.549622 
	C702.909729,351.641602 702.927856,353.315796 702.802002,355.232117 
	C703.060486,356.388519 703.462891,357.302795 703.873413,358.521851 
	C703.923584,359.230927 703.965576,359.635193 703.872437,360.314636 
	C704.783813,362.705902 705.830261,364.822021 707.104492,367.180084 
	C708.915710,368.958557 710.499084,370.495087 712.216797,372.331543 
	C713.558167,373.077454 714.765259,373.523499 716.262329,374.018066 
	C716.938721,374.117859 717.325256,374.169159 717.926025,374.496857 
	C720.750305,375.185638 723.360291,375.598022 726.440430,376.025391 
	C733.292603,376.025391 739.674683,376.010406 746.391357,376.191010 
	C749.802734,376.258728 752.879517,376.130859 756.405212,376.017090 
	C759.250427,376.021545 761.646851,376.011932 764.294067,376.178253 
	C765.683044,376.238983 766.821106,376.123749 768.426575,376.021912 
	C773.276978,376.025513 777.659973,376.015717 782.318848,376.187866 
	C784.047668,376.247681 785.500732,376.125580 787.423462,376.016785 
	C792.943359,376.020996 797.993530,376.011902 803.319458,376.184326 
	C805.047791,376.244202 806.500427,376.122650 808.376709,376.014984 
	C810.213379,376.020050 811.626221,376.011169 813.257263,376.164520 
	C814.302612,376.217957 815.129822,376.109192 816.428223,376.014374 
	C824.949341,376.017578 832.999390,376.006866 841.343262,376.181946 
	C843.406982,376.244110 845.176758,376.120422 847.410889,376.011169 
	C851.594299,376.018494 855.313416,376.011353 859.312622,376.183350 
	C864.376953,376.382812 865.687622,374.830872 864.980713,369.537903 
	C865.020813,345.786530 865.113342,322.503540 864.997131,299.221558 
	C864.974915,294.776886 866.429138,292.891052 871.044495,293.002899 
	C880.352234,293.228363 889.669006,293.079559 899.070923,293.413330 
	C900.057739,296.218842 900.955627,298.696167 901.845825,301.631104 
	C901.843323,309.336487 901.848450,316.584259 901.616089,323.986023 
	C901.536011,325.150208 901.693481,326.160400 901.840088,327.536774 
	C901.834839,328.879791 901.840332,329.856598 901.573608,331.039246 
	C901.483337,333.219635 901.665405,335.194183 901.839661,337.626648 
	C901.838562,353.338806 901.845215,368.592957 901.567871,384.067474 
	C901.472168,386.909729 901.660400,389.531616 901.842102,392.607666 
	C901.848206,397.338470 901.860840,401.615143 901.753357,406.099518 
	C901.713013,406.907074 901.792908,407.506958 901.855774,408.456238 
	C901.852234,409.504822 901.865601,410.204041 901.715942,411.205780 
	C901.662354,413.038635 901.771790,414.569000 901.866272,416.537964 
	C901.849487,419.605652 901.847656,422.234741 901.593323,425.035095 
	C901.510193,426.509430 901.679565,427.812561 901.844849,429.525452 
	C901.843750,431.574493 901.846680,433.213806 901.558594,435.083557 
	C900.848267,439.200226 900.428955,443.086426 899.973083,447.276917 
	C899.913025,447.989014 899.889587,448.396851 899.582642,449.014954 
	C898.888306,450.790405 898.477539,452.355499 898.025635,454.231476 
	C897.960449,454.959442 897.936279,455.376556 897.753357,455.971741 
	C897.392639,456.394470 897.220581,456.658600 896.901917,457.247559 
	C893.165955,463.086151 889.606506,468.619446 886.047058,474.152740 
	C886.047058,474.152740 886.060730,474.069580 885.765747,474.091064 
	C883.915222,475.545715 882.359680,476.978851 880.804077,478.411987 
	C880.804077,478.411987 880.566284,478.747223 880.207275,478.727814 
	C879.639709,478.918396 879.431152,479.128387 879.222595,479.338379 
	C879.222595,479.338379 879.223633,479.257690 878.882568,479.237244 
	C872.993286,481.162842 867.445190,483.108887 861.719788,484.929474 
	C861.001953,485.161835 860.461487,485.519653 859.709473,485.897400 
	C859.497864,485.917358 859.079407,485.991974 858.679688,485.979889 
	C857.484863,486.013092 856.689636,486.058350 855.620667,486.142059 
	C854.841736,486.410919 854.336670,486.641327 853.436401,486.860474 
	C851.724426,486.893402 850.407654,486.937561 848.612976,486.959351 
	C790.438477,486.893158 732.741760,486.849335 674.917725,486.452515 
	C674.175354,480.062988 673.254333,474.038239 673.020630,467.986969 
	C672.710205,459.950623 672.940491,459.935150 680.849304,459.935425 
	C734.319519,459.937256 787.789734,459.964050 841.259766,459.871094 
	C843.555725,459.867096 845.849792,458.766052 848.459106,458.145508 
	C849.195007,458.082764 849.616516,458.050598 850.233032,458.132996 
	C850.992554,457.877472 851.556946,457.507385 852.358032,457.098358 
	C852.594666,457.059448 853.060974,456.947266 853.251221,456.822296 
	C853.685303,456.512665 853.907288,456.304596 854.354736,455.950714 
	C855.079346,455.551117 855.556519,455.273865 856.219116,454.862000 
	C856.640991,454.530487 856.846008,454.305023 857.029663,454.045410 
	C857.039673,454.039856 857.051880,454.020386 857.240967,453.880890 
	C857.670715,453.538971 857.890259,453.315765 858.365234,452.882599 
	C860.139954,450.448303 861.638184,448.203186 863.346802,445.888123 
	C863.696411,445.247406 863.835571,444.676697 864.016846,443.759003 
	C864.108582,442.948730 864.158264,442.485413 864.464478,441.877258 
	C864.800415,440.522156 864.879822,439.311890 864.971436,437.626770 
	C864.979187,427.069855 864.974854,416.987793 865.115845,406.709473 
	C864.866699,405.692963 864.472229,404.872772 864.082275,404.010925 
	C864.086853,403.969299 864.053406,403.892456 863.916748,403.687439 
	C863.570068,403.227020 863.333557,402.999115 862.850220,402.490387 
	C860.394409,401.808594 858.159607,401.112885 855.923645,401.109161 
	C810.610718,401.033569 765.297546,401.097015 719.984802,400.987061 
	C707.204773,400.956055 695.212708,398.270935 685.383301,389.209625 
	C684.009460,387.943146 681.831970,387.548401 679.784790,386.655945 
	C679.200317,386.562103 678.857544,386.562500 678.514832,386.562897 
	C678.514832,386.562897 678.592285,386.571716 678.492188,386.275574 
	C678.103455,385.759399 677.814819,385.539307 677.526123,385.319244 
	C677.526123,385.319244 677.644287,385.339874 677.626892,385.083984 
	C676.890564,384.142365 676.171631,383.456665 675.452698,382.770996 
z"/>
<path fill="#CA8847" opacity="1.000000" stroke="none" 
	d="
M135.649048,454.999481 
	C135.651093,402.197845 135.718719,349.896057 135.547226,297.595032 
	C135.530960,292.635254 136.678619,291.118530 141.881378,291.136139 
	C199.845154,291.332001 257.809875,291.289886 315.774261,291.227264 
	C329.025024,291.212982 341.703644,293.096344 352.774384,301.061890 
	C370.645355,313.920349 375.619507,332.442535 374.424530,353.021667 
	C372.564850,385.048798 351.775665,404.961182 319.672424,405.250916 
	C274.203796,405.661316 228.729233,405.417053 183.257202,405.456146 
	C175.413208,405.462891 175.419281,405.471191 175.430817,413.377563 
	C175.464584,436.529999 175.493164,459.682465 175.523285,482.834900 
	C175.525406,484.459930 175.523575,486.084991 175.523575,488.394714 
	C167.898834,488.394714 160.792526,488.389069 153.686234,488.396729 
	C149.188980,488.401581 144.682632,488.256073 140.197495,488.497131 
	C136.756927,488.682068 135.474060,487.547028 135.552475,483.979126 
	C135.761047,474.489807 135.639130,464.993225 135.649048,454.999481 
M137.985382,442.500000 
	C137.985703,454.826324 138.068024,467.153473 137.944275,479.478546 
	C137.897537,484.134247 139.835251,486.184601 144.510925,486.084167 
	C151.170807,485.941040 157.836121,486.055115 164.499115,486.049927 
	C173.059952,486.043243 173.069702,486.039246 173.072327,477.429138 
	C173.079041,455.441193 173.057602,433.453247 173.088684,411.465363 
	C173.097855,404.971466 174.849243,403.257294 181.411255,403.078308 
	C183.408752,403.023834 185.408813,403.061066 187.407700,403.060822 
	C231.383560,403.055542 275.360931,403.264099 319.334534,402.946259 
	C338.186707,402.809998 354.125641,396.067291 364.548309,379.285004 
	C371.561493,367.992676 372.709167,355.404541 371.909393,342.671234 
	C370.725525,323.822723 362.752869,308.280792 345.353455,299.902710 
	C337.554260,296.147247 328.121674,294.248810 319.408020,294.175934 
	C261.443970,293.691376 203.473923,293.928711 145.505814,293.933136 
	C138.234848,293.933685 137.976044,294.165222 137.975021,301.576874 
	C137.968597,348.217926 137.979126,394.858948 137.985382,442.500000 
z"/>
<path fill="#7C7C7C" opacity="1.000000" stroke="none" 
	d="
M992.672241,988.576172 
	C988.540039,994.101929 984.690186,999.398315 980.541077,1005.106506 
	C977.034912,993.591431 969.218811,985.420837 956.790222,981.327454 
	C968.801147,976.937439 977.246826,969.407349 981.124390,956.769470 
	C985.500549,968.973816 993.374878,977.062134 1006.142883,980.797363 
	C1001.148743,983.656189 997.051697,986.001465 992.672241,988.576172 
z"/>
<path fill="#D28E4C" opacity="1.000000" stroke="none" 
	d="
M431.175354,383.563782 
	C430.764008,384.812317 430.285095,386.599060 429.126556,387.388519 
	C415.780396,396.483368 408.993835,409.186096 408.107025,425.143921 
	C407.386444,438.110931 408.460938,450.738068 415.506378,462.200195 
	C423.939301,475.919525 436.202576,484.353455 452.139374,484.831116 
	C486.050110,485.847534 519.994934,485.809082 553.926941,485.987152 
	C565.053345,486.045532 576.183472,485.448975 587.311340,485.130615 
	C596.098877,484.879211 603.555908,480.717346 611.564453,476.972717 
	C611.981140,476.983521 612.102173,477.115601 612.056458,477.307495 
	C611.925720,477.752533 611.885437,478.012634 611.889832,478.279633 
	C601.994202,485.595917 590.688354,488.310913 578.609436,488.321899 
	C539.656982,488.357300 500.704529,488.355896 461.752167,488.312683 
	C458.267731,488.308807 454.739746,488.177826 451.306366,487.635345 
	C418.668518,482.477966 403.543274,457.934692 405.411957,425.795837 
	C406.064606,414.570435 409.687653,404.325348 416.587250,394.925018 
	C416.749512,394.601685 416.667053,394.651245 416.667053,394.651245 
	C416.861450,394.531891 417.055847,394.412567 417.616821,394.116364 
	C417.983398,393.939484 418.049438,393.693634 418.049438,393.693634 
	C418.049438,393.693634 418.247162,393.274231 418.549591,393.133606 
	C418.852020,392.992981 419.054443,392.646667 419.054443,392.646667 
	C419.054443,392.646667 419.254791,392.252655 419.523499,392.152893 
	C419.792206,392.053162 419.912018,391.814026 419.911987,391.814026 
	C420.323486,391.336884 420.734985,390.859802 421.490845,390.099426 
	C421.835205,389.816162 421.721222,389.855865 421.721191,389.855835 
	C422.737762,389.025543 423.754333,388.195282 425.221558,387.187408 
	C425.672241,387.009827 425.921661,386.729767 425.921661,386.729736 
	C426.529449,386.252136 427.137238,385.774506 428.185669,385.182312 
	C428.626251,385.067749 428.835785,384.866760 428.835785,384.866760 
	C429.487885,384.457428 430.139954,384.048065 431.175354,383.563782 
z"/>
<path fill="#CE873A" opacity="1.000000" stroke="none" 
	d="
M848.144714,458.176086 
	C845.849792,458.766052 843.555725,459.867096 841.259766,459.871094 
	C787.789734,459.964050 734.319519,459.937256 680.849304,459.935425 
	C672.940491,459.935150 672.710205,459.950623 673.020630,467.986969 
	C673.254333,474.038239 674.175354,480.062988 674.638672,486.510712 
	C674.299866,486.953308 674.112854,486.984741 673.572449,486.887817 
	C672.482605,485.058990 671.100708,483.351379 671.119446,481.659302 
	C671.208496,473.608185 671.678650,465.561279 672.013184,457.512878 
	C673.996399,457.398895 675.979614,457.186676 677.962952,457.185211 
	C734.024963,457.144135 790.087036,457.124298 846.784058,457.331848 
	C847.651733,457.778107 847.893616,457.982544 848.144714,458.176086 
z"/>
<path fill="#D28E4C" opacity="1.000000" stroke="none" 
	d="
M680.026489,386.750153 
	C681.831970,387.548401 684.009460,387.943146 685.383301,389.209625 
	C695.212708,398.270935 707.204773,400.956055 719.984802,400.987061 
	C765.297546,401.097015 810.610718,401.033569 855.923645,401.109161 
	C858.159607,401.112885 860.394409,401.808594 862.375122,402.519806 
	C812.894470,402.880310 763.668457,402.903137 714.442505,402.925964 
	C712.813660,402.754822 711.184753,402.583679 708.929810,402.197357 
	C707.971313,401.957886 707.638855,401.933563 707.306396,401.909241 
	C698.392395,400.552124 690.451538,396.930054 682.944763,391.468506 
	C682.634888,391.360840 682.794617,391.543365 682.794617,391.543365 
	C681.967163,390.608612 681.139709,389.673859 680.159485,388.076233 
	C680.013306,387.192291 680.019897,386.971222 680.026489,386.750153 
z"/>
<path fill="#D28E4C" opacity="1.000000" stroke="none" 
	d="
M625.926453,461.117310 
	C626.508057,458.704468 627.176453,456.308624 627.654236,453.875397 
	C628.833496,447.869690 630.808533,441.859985 630.898132,435.828613 
	C631.269226,410.847565 630.868225,385.855835 631.132202,360.872070 
	C631.300354,344.957764 631.234619,329.209534 622.956787,314.449646 
	C622.948853,314.050354 623.032837,313.977844 623.264282,314.101898 
	C623.952881,314.484070 624.410034,314.742157 624.867126,315.000275 
	C624.867126,315.000275 625.117798,315.236542 625.171997,315.634521 
	C625.506531,316.382935 625.786926,316.733337 626.067261,317.083771 
	C626.610413,317.927673 627.153564,318.771545 627.790833,320.293396 
	C628.592712,322.566406 629.300537,324.161438 630.008301,325.756470 
	C630.264526,326.300201 630.520752,326.843933 630.844604,328.047852 
	C630.912231,328.708008 631.061157,329.106567 631.061157,329.106567 
	C631.254944,329.306763 631.376648,329.543945 631.428955,330.338745 
	C631.599854,331.244751 631.768127,331.630096 631.936401,332.015442 
	C631.936401,332.015442 631.992676,332.046234 631.937866,332.293396 
	C632.002686,332.969818 632.122375,333.399109 632.242065,333.828369 
	C632.418884,334.300385 632.595703,334.772400 632.688293,335.750244 
	C632.540161,336.574463 632.635315,336.834442 632.889526,337.035980 
	C632.889526,337.035980 632.965942,337.096344 632.914429,337.483154 
	C632.946533,338.327972 633.030212,338.786011 633.113892,339.244019 
	C633.339050,341.554474 633.756042,343.864624 633.760132,346.175476 
	C633.811951,375.328583 633.814758,404.481812 633.789978,433.634979 
	C633.788086,435.790833 633.477417,437.946442 633.055298,440.736237 
	C632.762085,442.242798 632.723816,443.115234 632.685547,443.987701 
	C632.595520,444.509644 632.505554,445.031555 632.161377,446.082764 
	C631.895813,446.981110 631.884399,447.350159 631.872986,447.719238 
	C631.872986,447.719238 631.955383,447.866486 631.738525,448.179169 
	C631.444702,448.881622 631.367737,449.271423 631.290771,449.661224 
	C631.358154,449.983063 631.325806,450.294556 630.857422,451.088684 
	C630.160400,452.988647 629.799866,454.395660 629.439270,455.802704 
	C629.462280,456.108826 629.394836,456.393524 628.871826,457.051331 
	C627.646667,458.669647 626.786560,459.893494 625.926453,461.117310 
z"/>
<path fill="#BB7B3E" opacity="1.000000" stroke="none" 
	d="
M599.806152,296.120209 
	C599.806152,296.120209 599.456665,296.086884 598.974915,295.840942 
	C591.816345,294.433563 585.144287,292.297516 578.461914,292.264587 
	C523.822021,291.995270 469.180206,292.114197 414.539001,292.137970 
	C412.550781,292.138824 410.562683,292.376068 408.495148,292.436768 
	C408.415771,292.370392 408.252350,292.243378 408.252350,292.243378 
	C409.941193,291.884796 411.629669,291.214783 413.318970,291.212708 
	C468.418854,291.144623 523.520569,290.920593 578.616821,291.360992 
	C587.036499,291.428314 595.431152,294.611084 603.683960,296.603607 
	C602.289124,296.609589 601.047607,296.364899 599.806152,296.120209 
z"/>
<path fill="#CA8847" opacity="1.000000" stroke="none" 
	d="
M746.056763,375.995422 
	C739.674683,376.010406 733.292603,376.025391 726.260864,375.852051 
	C724.860596,375.317017 724.109985,374.970276 723.359436,374.623535 
	C736.311035,374.501495 749.262573,374.283142 762.214233,374.276306 
	C795.128723,374.258881 828.043213,374.336182 861.149902,374.563049 
	C860.572205,375.168396 859.802307,375.586304 859.032471,376.004211 
	C855.313416,376.011353 851.594299,376.018494 847.120422,375.816742 
	C844.593506,375.737274 842.821472,375.866699 841.049377,375.996124 
	C832.999390,376.006866 824.949341,376.017578 816.212097,375.845276 
	C814.696289,375.775635 813.867676,375.888977 813.039124,376.002319 
	C811.626221,376.011169 810.213379,376.020050 808.104004,375.823975 
	C805.952881,375.746979 804.498291,375.874908 803.043640,376.002838 
	C797.993530,376.011902 792.943359,376.020996 787.150757,375.825378 
	C784.953186,375.749084 783.498047,375.877502 782.042969,376.005890 
	C777.659973,376.015717 773.276978,376.025513 768.177856,375.836792 
	C766.322266,375.759583 765.182739,375.880951 764.043213,376.002319 
	C761.646851,376.011932 759.250427,376.021545 756.072571,375.812317 
	C752.212952,375.727448 749.134888,375.861450 746.056763,375.995422 
z"/>
<path fill="#CA8847" opacity="1.000000" stroke="none" 
	d="
M671.786255,457.393982 
	C671.678650,465.561279 671.208496,473.608185 671.119446,481.659302 
	C671.100708,483.351379 672.482605,485.058990 673.943726,487.081177 
	C676.477417,487.572266 678.286438,487.888641 680.095520,487.889587 
	C734.320984,487.918427 788.546509,487.926636 842.771912,487.879089 
	C844.878479,487.877228 846.984558,487.294037 849.090820,486.981720 
	C850.407654,486.937561 851.724426,486.893402 853.813599,486.883179 
	C855.087952,486.912567 855.589966,486.908020 856.409912,486.882721 
	C857.511658,486.571991 858.295532,486.281982 859.079407,485.992004 
	C859.079407,485.991974 859.497864,485.917358 859.984070,485.866089 
	C860.945923,485.561554 861.421509,485.308289 861.897095,485.054993 
	C867.445190,483.108887 872.993286,481.162842 878.922729,479.240906 
	C869.387695,486.326111 858.063843,488.369354 846.227417,488.387573 
	C814.727905,488.436005 783.228210,488.412445 751.728638,488.414886 
	C726.395630,488.416840 701.061829,488.316956 675.730225,488.507935 
	C671.327698,488.541138 669.462708,487.654022 669.751038,482.806213 
	C670.165771,475.831879 669.732666,468.810699 669.899963,461.815216 
	C669.936523,460.289490 670.979675,458.787842 671.786255,457.393982 
z"/>
<path fill="#CA8847" opacity="1.000000" stroke="none" 
	d="
M901.849609,434.853088 
	C901.846680,433.213806 901.843750,431.574493 901.880371,429.100739 
	C901.895264,427.132111 901.870605,425.997986 901.845825,424.863831 
	C901.847656,422.234741 901.849487,419.605652 901.892944,416.104614 
	C901.916016,413.789551 901.897522,412.346405 901.879028,410.903259 
	C901.865601,410.204041 901.852234,409.504822 901.874390,408.086945 
	C901.897827,406.876129 901.885681,406.384003 901.873535,405.891846 
	C901.860840,401.615143 901.848206,397.338470 901.878784,392.145325 
	C901.898560,388.768280 901.875244,386.307709 901.851868,383.847137 
	C901.845215,368.592957 901.838562,353.338806 901.876526,337.173248 
	C901.896057,334.452393 901.870972,332.642883 901.845825,330.833405 
	C901.840332,329.856598 901.834839,328.879791 901.872559,327.119080 
	C901.894958,325.500793 901.874268,324.666412 901.853516,323.832031 
	C901.848450,316.584259 901.843323,309.336487 901.881470,301.173706 
	C901.912476,297.876404 901.900208,295.494110 901.937073,293.068054 
	C901.986267,293.024353 902.085022,292.937286 902.210815,293.008911 
	C902.580933,293.235077 902.808899,293.411255 903.020325,293.609131 
	C903.127563,296.428864 903.326294,299.248566 903.328186,302.068359 
	C903.356323,344.992065 903.377319,387.915802 903.333679,430.839447 
	C903.329956,434.480316 902.854187,438.120758 902.375488,441.627747 
	C902.052063,439.280426 901.950867,437.066772 901.849609,434.853088 
z"/>
<path fill="#D28E4C" opacity="1.000000" stroke="none" 
	d="
M594.012573,377.181519 
	C591.730286,377.772797 589.449341,378.874115 587.165527,378.880157 
	C541.053345,379.001984 494.940857,378.997986 448.685425,378.822510 
	C450.693695,378.083344 452.845032,377.540894 454.996338,376.998474 
	C456.627747,376.898346 458.259125,376.798187 460.775238,376.864075 
	C466.235474,376.962769 470.811035,376.895416 475.386566,376.828064 
	C475.948792,376.771179 476.511047,376.714294 477.836975,376.834564 
	C494.862946,376.952057 511.125183,376.892395 527.387451,376.832733 
	C527.642212,376.669495 527.918457,376.615112 528.907104,376.842163 
	C551.069641,377.070282 572.541077,377.125885 594.012573,377.181519 
z"/>
<path fill="#CA8847" opacity="1.000000" stroke="none" 
	d="
M702.946045,354.989960 
	C702.927856,353.315796 702.909729,351.641602 702.928040,349.088226 
	C702.951599,345.761292 702.938660,343.313538 702.925781,340.865814 
	C702.915283,326.920288 702.904785,312.974792 702.922791,298.206696 
	C702.646545,296.277435 702.341736,295.170746 702.036865,294.064087 
	C698.127991,293.727783 694.223511,293.185913 690.309204,293.100769 
	C683.527710,292.953217 676.740051,293.088593 669.121887,293.084839 
	C667.557434,293.074493 666.826050,293.084595 666.047302,293.047699 
	C665.999878,293.000702 665.904785,292.906982 665.927979,292.713287 
	C665.978699,292.260193 665.995850,292.000092 666.002563,291.739319 
	C675.793518,291.664886 685.584412,291.585907 695.375427,291.518982 
	C698.156738,291.499969 700.938232,291.516022 704.197815,291.516022 
	C704.197815,295.226105 704.200073,298.526642 704.197449,301.827179 
	C704.184631,317.655670 704.010498,333.486298 704.218384,349.311859 
	C704.337646,358.391937 706.003784,367.016785 715.369141,372.119873 
	C715.673767,372.292175 715.743164,372.264069 715.382263,372.193573 
	C714.041748,372.092590 713.062073,372.062103 712.082458,372.031647 
	C710.499084,370.495087 708.915710,368.958557 707.057861,366.840485 
	C705.858154,364.185791 704.932861,362.112640 704.007568,360.039490 
	C703.965576,359.635193 703.923584,359.230927 703.884155,358.171021 
	C703.573242,356.673584 703.259644,355.831757 702.946045,354.989960 
z"/>
<path fill="#CA8847" opacity="1.000000" stroke="none" 
	d="
M898.982056,293.085144 
	C889.669006,293.079559 880.352234,293.228363 871.044495,293.002899 
	C866.429138,292.891052 864.974915,294.776886 864.997131,299.221558 
	C865.113342,322.503540 865.020813,345.786530 864.788208,369.532684 
	C864.317810,369.985931 864.059998,369.976318 863.802124,369.967407 
	C863.802124,344.029724 863.802124,318.092041 863.802124,291.400574 
	C876.385376,291.400574 888.778320,291.400574 901.568604,291.756195 
	C902.008057,292.386627 902.047729,292.661774 902.085022,292.937286 
	C902.085022,292.937286 901.986267,293.024353 901.576050,293.044342 
	C900.437927,293.071259 899.709961,293.078217 898.982056,293.085144 
z"/>
<path fill="#BB7B3E" opacity="1.000000" stroke="none" 
	d="
M579.148926,321.935303 
	C579.148926,321.935303 579.510254,321.949738 579.947449,322.145905 
	C580.978760,322.511353 581.572876,322.680634 582.166992,322.849915 
	C582.166992,322.849915 582.518494,322.889008 582.864197,323.100311 
	C583.451538,323.525482 583.713989,323.709686 583.997253,323.864227 
	C583.997253,323.864227 584.105225,323.846954 584.206177,324.029480 
	C584.307190,324.212036 584.449280,324.505951 584.380005,324.578247 
	C584.310669,324.650513 584.171936,324.794922 584.171936,324.794922 
	C579.283691,324.017242 574.397095,322.576019 569.506958,322.564026 
	C517.388733,322.436646 465.270050,322.535828 413.151489,322.572632 
	C411.669769,322.573700 410.188019,322.572784 408.012573,322.572784 
	C408.012573,312.473602 408.012573,302.727997 408.132446,292.612885 
	C408.252350,292.243378 408.415771,292.370392 408.494019,292.806580 
	C408.709930,300.227661 408.904968,307.212036 408.969849,314.197571 
	C409.040894,321.848785 408.988464,321.842590 416.813416,321.846619 
	C470.925262,321.874512 525.037109,321.905396 579.148926,321.935303 
z"/>
<path fill="#BB7B3E" opacity="1.000000" stroke="none" 
	d="
M594.308105,376.969238 
	C572.541077,377.125885 551.069641,377.070282 529.106262,376.923798 
	C534.409912,376.668304 540.204773,376.392090 546.001038,376.361206 
	C560.128723,376.285950 574.258057,376.223663 588.384338,376.380188 
	C592.458496,376.425323 593.979004,375.027466 593.857666,370.898438 
	C593.642944,363.592712 594.391296,356.227600 593.747864,348.975067 
	C593.199951,342.799866 591.261047,336.748077 590.127258,330.448181 
	C591.223328,331.550323 592.129700,332.846008 593.036072,334.141693 
	C593.036072,334.141693 593.088623,334.484497 593.149963,334.961609 
	C593.504395,335.964325 593.797485,336.489960 594.090576,337.015594 
	C594.270264,337.202728 594.438721,337.399475 594.576233,338.006592 
	C594.741760,339.276550 594.927063,340.145660 595.112305,341.014771 
	C595.372498,343.056396 595.632629,345.098022 595.713745,347.889191 
	C595.645508,351.449554 595.756287,354.260345 595.867126,357.071167 
	C595.860291,357.485229 595.853516,357.899261 595.674438,358.987518 
	C595.602478,363.465668 595.702820,367.269623 595.803101,371.073578 
	C595.403259,372.968048 595.003479,374.862518 594.308105,376.969238 
z"/>
<path fill="#CA8642" opacity="1.000000" stroke="none" 
	d="
M666.041443,309.976746 
	C666.336487,312.080078 666.830078,314.177429 666.894104,316.287750 
	C667.290161,329.348083 667.159607,342.441498 668.072205,355.463074 
	C668.683411,364.184662 670.675049,372.822876 675.724365,380.784790 
	C675.536865,381.409027 675.398926,381.608765 675.294189,381.831421 
	C675.294189,381.831421 675.232178,382.043915 675.148682,382.117126 
	C667.168274,373.186859 664.995605,362.110748 664.550659,350.757324 
	C664.030884,337.495178 664.407227,324.197906 664.756348,310.459167 
	C665.425903,309.998230 665.733704,309.989685 666.041443,309.976746 
z"/>
<path fill="#CE873A" opacity="1.000000" stroke="none" 
	d="
M714.797668,403.035461 
	C763.668457,402.903137 812.894470,402.880310 862.595520,402.828094 
	C863.333557,402.999115 863.570068,403.227020 863.842651,403.718567 
	C863.905334,403.954681 863.605896,404.058655 863.605896,404.058655 
	C859.969788,403.858002 856.333740,403.485870 852.697510,403.483032 
	C811.664185,403.450836 770.630859,403.486572 729.597534,403.469452 
	C724.782593,403.467468 719.967712,403.258148 714.797668,403.035461 
z"/>
<path fill="#CA8847" opacity="1.000000" stroke="none" 
	d="
M863.558533,404.468842 
	C863.605896,404.058655 863.905334,403.954681 863.979370,403.923584 
	C864.053406,403.892456 864.086853,403.969299 864.085938,404.321106 
	C864.380188,405.417206 864.675354,406.161499 864.970459,406.905762 
	C864.974854,416.987793 864.979187,427.069855 864.784668,437.906982 
	C864.459778,439.782074 864.333862,440.902069 864.207886,442.022095 
	C864.158264,442.485413 864.108582,442.948730 863.844910,443.952332 
	C863.466064,444.981110 863.301208,445.469574 863.136353,445.958069 
	C861.638184,448.203186 860.139954,450.448303 858.171021,453.016418 
	C857.455383,453.539062 857.239258,453.766052 857.051880,454.020386 
	C857.051880,454.020386 857.039673,454.039856 856.849121,454.185364 
	C856.427551,454.531555 856.219299,454.753479 856.033691,454.996643 
	C855.556519,455.273865 855.079346,455.551117 854.160522,456.073059 
	C853.474243,456.501099 853.254944,456.710907 853.060974,456.947266 
	C853.060974,456.947266 852.594666,457.059448 852.068237,457.130432 
	C851.040527,457.473724 850.539307,457.746063 850.038025,458.018433 
	C849.616516,458.050598 849.195007,458.082764 848.459106,458.145508 
	C847.893616,457.982544 847.651733,457.778107 847.254639,457.393616 
	C857.460388,454.876343 862.694641,448.007965 863.150757,437.760345 
	C863.638000,426.816254 863.420776,415.840790 863.558533,404.468842 
z"/>
<path fill="#BB7B3E" opacity="1.000000" stroke="none" 
	d="
M527.041138,376.691711 
	C511.125183,376.892395 494.862946,376.952057 478.109558,376.920471 
	C493.977234,376.736420 510.336060,376.643524 527.041138,376.691711 
z"/>
<path fill="#CA8847" opacity="1.000000" stroke="none" 
	d="
M897.912109,455.793671 
	C897.936279,455.376556 897.960449,454.959442 898.251709,453.981171 
	C898.967896,451.881561 899.417053,450.343109 899.866150,448.804657 
	C899.889587,448.396851 899.913025,447.989014 900.180176,447.182800 
	C900.828064,446.570709 901.232239,446.357086 901.636414,446.143433 
	C900.080933,457.255890 894.938965,466.444855 886.377808,474.065063 
	C889.606506,468.619446 893.165955,463.086151 897.064331,457.076416 
	C897.612244,456.356049 897.781799,456.087280 897.912109,455.793671 
z"/>
<path fill="#BB7B3E" opacity="1.000000" stroke="none" 
	d="
M454.647217,376.892792 
	C452.845032,377.540894 450.693695,378.083344 448.209045,378.812134 
	C447.875732,378.998535 447.504364,379.031647 446.921570,379.041595 
	C444.189301,379.710480 442.039825,380.369415 439.890320,381.028381 
	C439.890320,381.028381 439.547607,381.093201 438.995850,381.154663 
	C437.221313,381.439056 435.998535,381.661987 434.775757,381.884888 
	C441.283234,380.185638 447.790680,378.486389 454.647217,376.892792 
z"/>
<path fill="#CA8847" opacity="1.000000" stroke="none" 
	d="
M666.048340,309.515320 
	C665.733704,309.989685 665.425903,309.998230 664.887451,310.008850 
	C664.599609,304.617004 664.542236,299.218658 664.912598,293.403229 
	C665.528503,292.959717 665.716675,292.933350 665.904785,292.906982 
	C665.904785,292.906982 665.999878,293.000702 666.027466,293.423035 
	C666.073181,294.603119 666.091309,295.360870 666.109375,296.118622 
	C666.091370,300.430389 666.073303,304.742157 666.048340,309.515320 
z"/>
<path fill="#BB7B3E" opacity="1.000000" stroke="none" 
	d="
M475.043762,376.687805 
	C470.811035,376.895416 466.235474,376.962769 461.177063,376.942749 
	C465.363129,376.752747 470.032013,376.650146 475.043762,376.687805 
z"/>
<path fill="#CA8642" opacity="1.000000" stroke="none" 
	d="
M901.815552,445.813782 
	C901.232239,446.357086 900.828064,446.570709 900.216797,446.878479 
	C900.428955,443.086426 900.848267,439.200226 901.558594,435.083557 
	C901.950867,437.066772 902.052063,439.280426 902.197937,441.966003 
	C902.242554,442.437897 902.358948,442.723755 902.168579,442.956787 
	C901.829468,443.468658 901.852417,443.738953 902.046936,444.000793 
	C902.029480,444.495239 902.012024,444.989716 901.815552,445.813782 
z"/>
<path fill="#CA8642" opacity="1.000000" stroke="none" 
	d="
M863.664978,370.618164 
	C864.059998,369.976318 864.317810,369.985931 864.768127,370.001404 
	C865.687622,374.830872 864.376953,376.382812 859.312622,376.183380 
	C859.802307,375.586304 860.572205,375.168396 861.496216,374.699127 
	C862.276184,373.521484 862.901978,372.395172 863.664978,370.618164 
z"/>
<path fill="#D28E4C" opacity="1.000000" stroke="none" 
	d="
M593.036377,333.740570 
	C592.129700,332.846008 591.223328,331.550323 590.074463,330.105774 
	C588.693115,328.807831 587.554382,327.658783 586.237183,325.972534 
	C586.068909,325.261810 586.079163,325.088379 586.089355,324.914978 
	C590.835571,325.718872 592.593323,328.987152 593.036377,333.740570 
z"/>
<path fill="#CA8642" opacity="1.000000" stroke="none" 
	d="
M722.985046,374.438934 
	C724.109985,374.970276 724.860596,375.317017 725.790710,375.837067 
	C723.360291,375.598022 720.750305,375.185638 718.331543,374.403564 
	C718.793884,373.982056 719.064880,373.930176 719.335876,373.878326 
	C720.427490,374.003662 721.519043,374.128998 722.985046,374.438934 
z"/>
<path fill="#D28E4C" opacity="1.000000" stroke="none" 
	d="
M620.138367,308.529205 
	C618.510437,307.735840 616.787903,306.621246 615.294678,305.224670 
	C615.937134,304.979156 616.350281,305.015686 616.763489,305.052216 
	C617.856934,306.104126 618.950317,307.156036 620.138367,308.529205 
z"/>
<path fill="#D28E4C" opacity="1.000000" stroke="none" 
	d="
M434.468658,381.908142 
	C435.998535,381.661987 437.221313,381.439056 438.822388,381.172852 
	C436.930237,382.000763 434.659760,382.871918 431.986755,383.623627 
	C432.443329,382.979889 433.302460,382.455627 434.468658,381.908142 
z"/>
<path fill="#CA8847" opacity="1.000000" stroke="none" 
	d="
M881.110596,478.312958 
	C882.359680,476.978851 883.915222,475.545715 885.807251,474.098724 
	C884.568054,475.461243 882.992554,476.837585 881.110596,478.312958 
z"/>
<path fill="#BB7B3E" opacity="1.000000" stroke="none" 
	d="
M611.827087,302.147278 
	C611.827087,302.147278 611.485779,302.065918 611.108643,301.770325 
	C609.811584,300.987274 608.891663,300.499817 607.971680,300.012390 
	C607.971680,300.012390 608.005554,300.001282 607.985718,299.805969 
	C607.919800,299.332642 607.909302,299.053284 607.934448,298.772552 
	C609.525696,299.659424 611.116882,300.546326 612.790100,301.784058 
	C612.872070,302.134888 612.689758,302.325989 612.476013,302.272064 
	C612.262268,302.218140 611.827087,302.147278 611.827087,302.147278 
z"/>
<path fill="#BB7B3E" opacity="1.000000" stroke="none" 
	d="
M625.891602,461.297302 
	C626.786560,459.893494 627.646667,458.669647 628.736694,457.227692 
	C627.888550,459.292694 626.810425,461.575836 625.447876,463.997192 
	C625.103577,463.967102 625.043762,463.798798 625.136353,463.172760 
	C625.463989,462.423859 625.639038,462.132690 625.814148,461.841492 
	C625.814148,461.841492 625.856689,461.477295 625.891602,461.297302 
z"/>
<path fill="#BB7B3E" opacity="1.000000" stroke="none" 
	d="
M630.045044,325.462250 
	C629.300537,324.161438 628.592712,322.566406 627.876892,320.662659 
	C628.606445,321.958679 629.344116,323.563354 630.045044,325.462250 
z"/>
<path fill="#BB7B3E" opacity="1.000000" stroke="none" 
	d="
M616.618774,304.783600 
	C616.350281,305.015686 615.937134,304.979156 615.213867,304.886230 
	C614.750549,304.639099 614.585266,304.459442 614.094421,303.974915 
	C613.510498,303.448639 613.240112,303.238281 612.969788,303.027893 
	C612.969788,303.027893 612.973450,303.030823 612.906189,302.853760 
	C612.838928,302.676697 612.689758,302.325989 612.689758,302.325989 
	C612.689758,302.325989 612.872070,302.134888 612.963257,302.039398 
	C614.194397,302.800934 615.334229,303.657959 616.618774,304.783600 
z"/>
<path fill="#D28E4C" opacity="1.000000" stroke="none" 
	d="
M600.031860,296.425385 
	C601.047607,296.364899 602.289124,296.609589 603.907349,296.857727 
	C604.627930,296.823578 604.933594,296.914246 605.317749,297.348785 
	C603.708740,297.286346 601.983154,297.008453 600.031860,296.425385 
z"/>
<path fill="#BB7B3E" opacity="1.000000" stroke="none" 
	d="
M629.655701,455.589417 
	C629.799866,454.395660 630.160400,452.988647 630.740356,451.295776 
	C630.597168,452.465332 630.234680,453.920746 629.655701,455.589417 
z"/>
<path fill="#D28E4C" opacity="1.000000" stroke="none" 
	d="
M607.674500,298.512512 
	C607.909302,299.053284 607.919800,299.332642 607.975342,299.820740 
	C607.118958,299.420563 606.253052,298.810272 605.375610,297.852600 
	C606.047546,297.754242 606.731018,298.003357 607.674500,298.512512 
z"/>
<path fill="#D28E4C" opacity="1.000000" stroke="none" 
	d="
M611.920532,476.917572 
	C612.745300,476.333405 613.630676,475.815186 614.741211,475.521362 
	C614.966431,475.745728 614.970276,476.012115 614.970276,476.012115 
	C614.657715,476.328217 614.345215,476.644287 613.394226,477.045410 
	C612.537903,477.125488 612.320007,477.120544 612.102173,477.115601 
	C612.102173,477.115601 611.981140,476.983521 611.920532,476.917572 
z"/>
<path fill="#CA8847" opacity="1.000000" stroke="none" 
	d="
M719.051270,373.696533 
	C719.064880,373.930176 718.793884,373.982056 718.117310,374.127197 
	C717.325256,374.169159 716.938721,374.117859 716.244507,373.731049 
	C715.872253,373.018372 715.807739,372.641235 715.743164,372.264069 
	C715.743164,372.264069 715.673767,372.292175 715.639404,372.307037 
	C716.658875,372.719513 717.712769,373.117126 719.051270,373.696533 
z"/>
<path fill="#CA8642" opacity="1.000000" stroke="none" 
	d="
M902.210815,293.008911 
	C902.047729,292.661774 902.008057,292.386627 901.937073,291.905365 
	C902.344177,292.188202 902.780090,292.677460 903.118164,293.387939 
	C902.808899,293.411255 902.580933,293.235077 902.210815,293.008911 
z"/>
<path fill="#D28E4C" opacity="1.000000" stroke="none" 
	d="
M622.906982,314.086731 
	C622.234558,313.284821 621.603943,312.446564 621.226196,311.296448 
	C621.675842,310.985901 621.872620,310.987183 622.069458,310.988464 
	C622.406921,311.358612 622.744324,311.728729 623.087708,312.691284 
	C623.073364,313.515076 623.053101,313.746460 623.032837,313.977844 
	C623.032837,313.977844 622.948853,314.050354 622.906982,314.086731 
z"/>
<path fill="#CA8642" opacity="1.000000" stroke="none" 
	d="
M675.514771,383.069885 
	C676.171631,383.456665 676.890564,384.142365 677.612183,385.142090 
	C676.935547,384.760345 676.256226,384.064575 675.514771,383.069885 
z"/>
<path fill="#BB7B3E" opacity="1.000000" stroke="none" 
	d="
M632.827271,443.758362 
	C632.723816,443.115234 632.762085,442.242798 632.936523,441.127991 
	C633.038147,441.766754 633.003601,442.647858 632.827271,443.758362 
z"/>
<path fill="#CA8642" opacity="1.000000" stroke="none" 
	d="
M665.927979,292.713287 
	C665.716675,292.933350 665.528503,292.959717 665.057007,293.016907 
	C665.056091,292.557648 665.338501,292.067596 665.811768,291.658447 
	C665.995850,292.000092 665.978699,292.260193 665.927979,292.713287 
z"/>
<path fill="#BB7B3E" opacity="1.000000" stroke="none" 
	d="
M623.264282,314.101898 
	C623.053101,313.746460 623.073364,313.515076 623.148804,312.939453 
	C623.730347,313.195892 624.256592,313.796570 624.825012,314.698730 
	C624.410034,314.742157 623.952881,314.484070 623.264282,314.101898 
z"/>
<path fill="#BB7B3E" opacity="1.000000" stroke="none" 
	d="
M624.000854,466.334351 
	C624.052917,465.783020 624.354553,465.061554 624.924316,464.202148 
	C624.878540,464.764221 624.564575,465.464233 624.000854,466.334351 
z"/>
<path fill="#BB7B3E" opacity="1.000000" stroke="none" 
	d="
M612.056458,477.307495 
	C612.320007,477.120544 612.537903,477.125488 613.080688,477.167267 
	C613.064575,477.538483 612.723511,477.872894 612.136169,478.243469 
	C611.885437,478.012634 611.925720,477.752533 612.056458,477.307495 
z"/>
<path fill="#BB7B3E" opacity="1.000000" stroke="none" 
	d="
M632.306030,333.606476 
	C632.122375,333.399109 632.002686,332.969818 631.915283,332.316193 
	C632.088379,332.522736 632.229187,332.953674 632.306030,333.606476 
z"/>
<path fill="#BB7B3E" opacity="1.000000" stroke="none" 
	d="
M586.074585,324.924072 
	C586.079163,325.088379 586.068909,325.261810 586.035095,325.694824 
	C585.525879,325.703339 585.040161,325.452332 584.363220,324.998108 
	C584.171936,324.794922 584.310669,324.650513 584.636963,324.671753 
	C585.319763,324.776794 585.676208,324.860535 586.032654,324.944275 
	C586.032654,324.944275 586.059814,324.933197 586.074585,324.924072 
z"/>
<path fill="#BB7B3E" opacity="1.000000" stroke="none" 
	d="
M631.994507,447.566193 
	C631.884399,447.350159 631.895813,446.981110 631.995361,446.446411 
	C632.094360,446.658234 632.105164,447.035706 631.994507,447.566193 
z"/>
<path fill="#BB7B3E" opacity="1.000000" stroke="none" 
	d="
M626.072510,316.843933 
	C625.786926,316.733337 625.506531,316.382935 625.196777,315.804962 
	C625.470886,315.919647 625.774353,316.261871 626.072510,316.843933 
z"/>
<path fill="#BB7B3E" opacity="1.000000" stroke="none" 
	d="
M622.021729,310.717926 
	C621.872620,310.987183 621.675842,310.985901 621.182983,310.966309 
	C620.836731,310.592468 620.786438,310.236877 620.756592,309.608643 
	C621.176025,309.706451 621.575012,310.076935 622.021729,310.717926 
z"/>
<path fill="#CA8642" opacity="1.000000" stroke="none" 
	d="
M679.784790,386.655945 
	C680.019897,386.971222 680.013306,387.192291 679.984131,387.744232 
	C679.532288,387.749146 679.102905,387.423187 678.594238,386.830078 
	C678.857544,386.562500 679.200317,386.562103 679.784790,386.655945 
z"/>
<path fill="#BB7B3E" opacity="1.000000" stroke="none" 
	d="
M633.191895,339.038574 
	C633.030212,338.786011 632.946533,338.327972 632.883911,337.521088 
	C633.026550,337.725830 633.148254,338.279480 633.191895,339.038574 
z"/>
<path fill="#CE873A" opacity="1.000000" stroke="none" 
	d="
M707.448975,402.016357 
	C707.638855,401.933563 707.971313,401.957886 708.466064,402.024506 
	C708.282837,402.085693 707.937195,402.104584 707.448975,402.016357 
z"/>
<path fill="#BB7B3E" opacity="1.000000" stroke="none" 
	d="
M621.834106,467.808197 
	C622.150391,467.590485 622.466614,467.372772 623.066162,467.087891 
	C623.042480,467.604645 622.735596,468.188538 622.135681,468.943542 
	C621.842712,469.114655 621.635498,468.979492 621.677490,468.631439 
	C621.719421,468.283386 621.834106,467.808197 621.834106,467.808197 
z"/>
<path fill="#BB7B3E" opacity="1.000000" stroke="none" 
	d="
M617.049316,474.315308 
	C616.874756,474.086670 616.949036,473.950378 617.268188,473.886108 
	C617.460144,474.109528 617.388489,474.259369 617.049316,474.315308 
z"/>
<path fill="#BB7B3E" opacity="1.000000" stroke="none" 
	d="
M616.130127,475.046173 
	C616.108276,474.983551 616.123535,474.963623 616.140930,474.951202 
	C616.158325,474.938782 616.151917,475.108795 616.130127,475.046173 
z"/>
<path fill="#BB7B3E" opacity="1.000000" stroke="none" 
	d="
M615.078979,476.055908 
	C614.970276,476.012115 614.966431,475.745728 615.009644,475.619324 
	C615.052795,475.492950 615.237915,475.538940 615.272949,475.627258 
	C615.307983,475.715607 615.187683,476.099731 615.078979,476.055908 
z"/>
<path fill="#CA8847" opacity="1.000000" stroke="none" 
	d="
M879.495483,479.283997 
	C879.431152,479.128387 879.639709,478.918396 880.007080,478.774231 
	C880.033386,478.969879 879.900940,479.099762 879.495483,479.283997 
z"/>
<path fill="#BB7B3E" opacity="1.000000" stroke="none" 
	d="
M428.755768,384.793610 
	C428.835785,384.866760 428.626251,385.067749 428.551941,385.048523 
	C428.477631,385.029266 428.675751,384.720459 428.755768,384.793610 
z"/>
<path fill="#BB7B3E" opacity="1.000000" stroke="none" 
	d="
M631.138916,329.003876 
	C631.061157,329.106567 630.912231,328.708008 630.901917,328.495636 
	C631.138000,328.401947 631.246338,328.607941 631.138916,329.003876 
z"/>
<path fill="#CA8642" opacity="1.000000" stroke="none" 
	d="
M682.753967,391.492676 
	C682.794617,391.543365 682.634888,391.360840 682.576904,391.339569 
	C682.518860,391.318298 682.713318,391.442017 682.753967,391.492676 
z"/>
<path fill="#BB7B3E" opacity="1.000000" stroke="none" 
	d="
M418.931824,392.638763 
	C419.054443,392.646667 418.852020,392.992981 418.752563,393.021576 
	C418.653107,393.050171 418.809204,392.630859 418.931824,392.638763 
z"/>
<path fill="#BB7B3E" opacity="1.000000" stroke="none" 
	d="
M417.953156,393.663574 
	C418.049438,393.693634 417.983398,393.939484 417.915527,393.949585 
	C417.847656,393.959656 417.856873,393.633545 417.953156,393.663574 
z"/>
<path fill="#BB7B3E" opacity="1.000000" stroke="none" 
	d="
M416.730164,394.746460 
	C416.667053,394.651245 416.749512,394.601685 416.727905,394.559814 
	C416.706299,394.517914 416.793274,394.841675 416.730164,394.746460 
z"/>
<path fill="#BB7B3E" opacity="1.000000" stroke="none" 
	d="
M421.745178,389.907440 
	C421.721222,389.855865 421.835205,389.816162 421.865173,389.807770 
	C421.895142,389.799377 421.769135,389.959015 421.745178,389.907440 
z"/>
<path fill="#BB7B3E" opacity="1.000000" stroke="none" 
	d="
M632.932739,336.769409 
	C632.635315,336.834442 632.540161,336.574463 632.683716,336.131256 
	C632.834229,336.171906 632.905151,336.337372 632.932739,336.769409 
z"/>
<path fill="#BB7B3E" opacity="1.000000" stroke="none" 
	d="
M425.809326,386.685242 
	C425.921661,386.729767 425.672241,387.009827 425.575012,387.011902 
	C425.477814,387.014008 425.696991,386.640686 425.809326,386.685242 
z"/>
<path fill="#BB7B3E" opacity="1.000000" stroke="none" 
	d="
M631.971680,331.685913 
	C631.768127,331.630096 631.599854,331.244751 631.409424,330.540039 
	C631.593872,330.599274 631.800415,330.977814 631.971680,331.685913 
z"/>
<path fill="#CA8847" opacity="1.000000" stroke="none" 
	d="
M902.151367,443.752380 
	C901.852417,443.738953 901.829468,443.468658 902.076233,443.080475 
	C902.201538,443.148712 902.228699,443.326324 902.151367,443.752380 
z"/>
<path fill="#BB7B3E" opacity="1.000000" stroke="none" 
	d="
M621.046265,470.125854 
	C621.033203,470.082397 621.058167,470.095978 621.048096,470.085724 
	C621.038086,470.075470 621.059387,470.169312 621.046265,470.125854 
z"/>
<path fill="#BB7B3E" opacity="1.000000" stroke="none" 
	d="
M631.506165,449.432373 
	C631.367737,449.271423 631.444702,448.881622 631.676147,448.235962 
	C631.794312,448.387909 631.757935,448.795746 631.506165,449.432373 
z"/>
<path fill="#CA8642" opacity="1.000000" stroke="none" 
	d="
M677.571289,385.604248 
	C677.814819,385.539307 678.103455,385.759399 678.462036,386.250977 
	C678.226746,386.311432 677.921570,386.100342 677.571289,385.604248 
z"/>
<path fill="#BB7B3E" opacity="1.000000" stroke="none" 
	d="
M419.821594,391.769897 
	C419.912018,391.814026 419.792206,392.053162 419.720581,392.052856 
	C419.648956,392.052521 419.731140,391.725800 419.821594,391.769897 
z"/>
<path fill="#010102" opacity="1.000000" stroke="none" 
	d="
M555.000000,662.884827 
	C566.488647,662.900330 577.479431,663.042725 588.464844,662.861267 
	C592.527100,662.794128 594.093140,664.135681 593.989990,668.301392 
	C593.775635,676.953186 594.292908,685.632507 593.838928,694.265259 
	C593.599915,698.809570 592.527771,703.516724 590.804504,707.730164 
	C587.877319,714.886902 582.093628,718.207275 574.213806,718.180542 
	C545.743530,718.083801 517.272766,718.130737 488.802185,718.136902 
	C481.143524,718.138550 473.484131,718.265320 465.826355,718.195923 
	C455.833954,718.105408 450.356781,714.269287 447.060913,704.829102 
	C443.885498,695.734009 444.085632,686.415039 446.711029,677.295288 
	C449.387512,667.998047 456.511475,662.994812 466.590729,662.959900 
	C495.893585,662.858276 525.196899,662.898560 555.000000,662.884827 
z"/>
<path fill="#010102" opacity="1.000000" stroke="none" 
	d="
M226.999863,581.770264 
	C255.655411,581.757446 283.810974,581.734619 311.966522,581.739929 
	C326.352844,581.742615 332.511749,587.207214 334.287415,601.631287 
	C334.672821,604.761963 334.813629,607.940308 334.820892,611.097229 
	C334.881287,637.420044 334.901031,663.743042 334.878052,690.065979 
	C334.875732,692.718384 334.717773,695.405762 334.277039,698.016907 
	C332.125305,710.763977 325.807007,716.583130 313.004608,716.627380 
	C268.689362,716.780396 224.373138,716.651978 180.057510,716.741455 
	C176.303009,716.749023 175.213760,715.362549 175.221802,711.749329 
	C175.314514,670.099304 175.332184,628.448853 175.214615,586.798950 
	C175.203110,582.720337 176.789993,581.695251 180.518463,581.725952 
	C195.844696,581.852112 211.172577,581.774597 226.999863,581.770264 
z"/>
<path fill="#CA8642" opacity="1.000000" stroke="none" 
	d="
M445.407074,448.422119 
	C441.630798,438.751984 442.227081,429.156830 443.466400,419.552216 
	C445.046814,407.304077 456.770630,401.098145 468.378601,401.089447 
	C501.197205,401.064850 534.015808,401.079437 566.834412,401.078278 
	C573.164917,401.078064 579.497192,401.171570 585.825500,401.053864 
	C596.347229,400.858124 596.208069,404.568634 596.445679,412.096954 
	C596.697205,420.065857 596.195557,428.061157 595.935669,436.042084 
	C595.854858,438.522064 595.849304,441.092407 595.195251,443.451080 
	C591.640015,456.271606 585.424683,460.941925 572.072693,460.952698 
	C536.588623,460.981323 501.104553,460.976166 465.620483,460.957458 
	C456.499786,460.952667 449.569824,457.239075 445.407074,448.422119 
M453.064270,454.603424 
	C457.383820,456.020538 461.692657,458.628143 466.024597,458.667084 
	C502.004669,458.990387 537.989075,458.869385 573.971985,458.811432 
	C583.339966,458.796356 588.671997,455.215942 591.736023,446.342285 
	C593.068970,442.481873 593.618652,438.220093 593.774841,434.112122 
	C594.084900,425.961029 593.652954,417.781555 593.968079,409.630829 
	C594.141724,405.139099 592.815002,403.632355 588.146973,403.666992 
	C561.327820,403.866119 534.506287,403.743835 507.685608,403.754272 
	C493.525818,403.759796 479.365997,403.799164 465.206299,403.851501 
	C458.821808,403.875092 453.497192,406.181305 449.704254,411.460175 
	C442.177368,421.935822 443.702271,444.581390 453.064270,454.603424 
z"/>
<path fill="#D28E4C" opacity="1.000000" stroke="none" 
	d="
M578.818542,321.724182 
	C525.037109,321.905396 470.925262,321.874512 416.813416,321.846619 
	C408.988464,321.842590 409.040894,321.848785 408.969849,314.197571 
	C408.904968,307.212036 408.709930,300.227661 408.573395,292.872986 
	C410.562683,292.376068 412.550781,292.138824 414.539001,292.137970 
	C469.180206,292.114197 523.822021,291.995270 578.461914,292.264587 
	C585.144287,292.297516 591.816345,294.433563 598.802185,295.809692 
	C538.430054,291.416565 477.652893,295.206543 416.935028,293.892365 
	C412.463501,293.795593 410.187378,295.744110 410.203430,299.903748 
	C410.225861,305.707733 410.501648,311.545654 411.297455,317.281860 
	C411.453827,318.409271 414.451385,319.901367 416.162415,319.932953 
	C428.621857,320.162598 441.088104,319.979248 453.550812,320.085175 
	C470.644714,320.230438 487.737579,320.711700 504.830505,320.691925 
	C526.462097,320.666901 548.092896,320.224823 569.724854,320.122772 
	C572.643738,320.108978 575.566956,321.026703 578.818542,321.724182 
z"/>
<path fill="#D28E4C" opacity="1.000000" stroke="none" 
	d="
M595.850220,370.608582 
	C595.702820,367.269623 595.602478,363.465668 595.682434,359.298035 
	C595.874268,362.670746 595.885803,366.407166 595.850220,370.608582 
z"/>
<path fill="#D28E4C" opacity="1.000000" stroke="none" 
	d="
M440.301575,381.032593 
	C442.039825,380.369415 444.189301,379.710480 446.735352,379.049896 
	C444.992188,379.711090 442.852509,380.373932 440.301575,381.032593 
z"/>
<path fill="#D28E4C" opacity="1.000000" stroke="none" 
	d="
M595.904053,356.614746 
	C595.756287,354.260345 595.645508,351.449554 595.712036,348.292664 
	C595.906555,350.683838 595.923767,353.421051 595.904053,356.614746 
z"/>
<path fill="#D28E4C" opacity="1.000000" stroke="none" 
	d="
M608.108032,300.314880 
	C608.891663,300.499817 609.811584,300.987274 610.940063,301.721863 
	C610.180481,301.518494 609.212463,301.067963 608.108032,300.314880 
z"/>
<path fill="#D28E4C" opacity="1.000000" stroke="none" 
	d="
M595.094788,340.625610 
	C594.927063,340.145660 594.741760,339.276550 594.697388,338.158569 
	C594.917969,338.685303 594.997620,339.460907 595.094788,340.625610 
z"/>
<path fill="#D28E4C" opacity="1.000000" stroke="none" 
	d="
M581.907410,322.679199 
	C581.572876,322.680634 580.978760,322.511353 580.127319,322.165070 
	C580.462585,322.161530 581.055176,322.334991 581.907410,322.679199 
z"/>
<path fill="#D28E4C" opacity="1.000000" stroke="none" 
	d="
M585.841980,324.754089 
	C585.676208,324.860535 585.319763,324.776794 584.706299,324.599487 
	C584.449280,324.505951 584.307190,324.212036 584.253052,324.057617 
	C584.683044,324.123444 585.167175,324.343689 585.841980,324.754089 
z"/>
<path fill="#D28E4C" opacity="1.000000" stroke="none" 
	d="
M594.019165,336.722382 
	C593.797485,336.489960 593.504395,335.964325 593.160522,335.134674 
	C593.389038,335.363495 593.668396,335.896332 594.019165,336.722382 
z"/>
<path fill="#D28E4C" opacity="1.000000" stroke="none" 
	d="
M613.128601,303.233826 
	C613.240112,303.238281 613.510498,303.448639 613.961304,303.845947 
	C613.857056,303.835144 613.572205,303.637421 613.128601,303.233826 
z"/>
<path fill="#D28E4C" opacity="1.000000" stroke="none" 
	d="
M612.476013,302.272064 
	C612.689758,302.325989 612.838928,302.676697 612.896729,302.858337 
	C612.666809,302.893433 612.405640,302.709381 611.999023,302.317505 
	C611.827087,302.147278 612.262268,302.218140 612.476013,302.272064 
z"/>
<path fill="#D28E4C" opacity="1.000000" stroke="none" 
	d="
M583.843567,323.675385 
	C583.713989,323.709686 583.451538,323.525482 583.036377,323.140381 
	C583.174500,323.084198 583.450134,323.256653 583.843567,323.675385 
z"/>
<path fill="#D28E4C" opacity="1.000000" stroke="none" 
	d="
M625.637817,462.027405 
	C625.639038,462.132690 625.463989,462.423859 625.116455,462.905579 
	C625.116516,462.801849 625.289062,462.507599 625.637817,462.027405 
z"/>
<path fill="#D28E4C" opacity="1.000000" stroke="none" 
	d="
M621.742554,467.909668 
	C621.834106,467.808197 621.719421,468.283386 621.640808,468.513306 
	C621.442017,468.485168 621.471619,468.241150 621.742554,467.909668 
z"/>
<path fill="#D28E4C" opacity="1.000000" stroke="none" 
	d="
M848.612976,486.959351 
	C846.984558,487.294037 844.878479,487.877228 842.771912,487.879089 
	C788.546509,487.926636 734.320984,487.918427 680.095520,487.889587 
	C678.286438,487.888641 676.477417,487.572266 674.297119,487.209534 
	C674.112854,486.984741 674.299866,486.953308 674.765991,486.863708 
	C732.741760,486.849335 790.438477,486.893158 848.612976,486.959351 
z"/>
<path fill="#CA8642" opacity="1.000000" stroke="none" 
	d="
M746.391357,376.191040 
	C749.134888,375.861450 752.212952,375.727448 755.623718,375.798218 
	C752.879517,376.130859 749.802734,376.258728 746.391357,376.191040 
z"/>
<path fill="#CA8642" opacity="1.000000" stroke="none" 
	d="
M899.070923,293.413361 
	C899.709961,293.078217 900.437927,293.071259 901.526855,293.088074 
	C901.900208,295.494110 901.912476,297.876404 901.889160,300.716095 
	C900.955627,298.696167 900.057739,296.218842 899.070923,293.413361 
z"/>
<path fill="#CA8642" opacity="1.000000" stroke="none" 
	d="
M901.567871,384.067474 
	C901.875244,386.307709 901.898560,388.768280 901.885254,391.691193 
	C901.660400,389.531616 901.472168,386.909729 901.567871,384.067474 
z"/>
<path fill="#CA8642" opacity="1.000000" stroke="none" 
	d="
M703.872437,360.314636 
	C704.932861,362.112640 705.858154,364.185791 706.830078,366.598541 
	C705.830261,364.822021 704.783813,362.705902 703.872437,360.314636 
z"/>
<path fill="#CA8642" opacity="1.000000" stroke="none" 
	d="
M901.573608,331.039246 
	C901.870972,332.642883 901.896057,334.452393 901.884277,336.715271 
	C901.665405,335.194183 901.483337,333.219635 901.573608,331.039246 
z"/>
<path fill="#CA8642" opacity="1.000000" stroke="none" 
	d="
M841.343262,376.181946 
	C842.821472,375.866699 844.593506,375.737274 846.656128,375.802307 
	C845.176758,376.120422 843.406982,376.244110 841.343262,376.181946 
z"/>
<path fill="#CA8642" opacity="1.000000" stroke="none" 
	d="
M803.319458,376.184326 
	C804.498291,375.874908 805.952881,375.746979 807.680298,375.810059 
	C806.500427,376.122650 805.047791,376.244202 803.319458,376.184326 
z"/>
<path fill="#CA8642" opacity="1.000000" stroke="none" 
	d="
M782.318848,376.187866 
	C783.498047,375.877502 784.953186,375.749084 786.681030,375.812073 
	C785.500732,376.125580 784.047668,376.247681 782.318848,376.187866 
z"/>
<path fill="#CA8642" opacity="1.000000" stroke="none" 
	d="
M899.582642,449.014954 
	C899.417053,450.343109 898.967896,451.881561 898.292725,453.670319 
	C898.477539,452.355499 898.888306,450.790405 899.582642,449.014954 
z"/>
<path fill="#CE873A" opacity="1.000000" stroke="none" 
	d="
M864.464478,441.877258 
	C864.333862,440.902069 864.459778,439.782074 864.772461,438.381836 
	C864.879822,439.311890 864.800415,440.522156 864.464478,441.877258 
z"/>
<path fill="#CA8642" opacity="1.000000" stroke="none" 
	d="
M764.294067,376.178223 
	C765.182739,375.880951 766.322266,375.759583 767.710449,375.823364 
	C766.821106,376.123749 765.683044,376.238983 764.294067,376.178223 
z"/>
<path fill="#CA8642" opacity="1.000000" stroke="none" 
	d="
M715.382263,372.193573 
	C715.807739,372.641235 715.872253,373.018372 715.954590,373.682556 
	C714.765259,373.523499 713.558167,373.077454 712.216797,372.331543 
	C713.062073,372.062103 714.041748,372.092590 715.382263,372.193573 
z"/>
<path fill="#CA8642" opacity="1.000000" stroke="none" 
	d="
M901.593384,425.035095 
	C901.870605,425.997986 901.895264,427.132111 901.884399,428.690979 
	C901.679565,427.812561 901.510193,426.509430 901.593384,425.035095 
z"/>
<path fill="#CA8642" opacity="1.000000" stroke="none" 
	d="
M702.749451,341.214539 
	C702.938660,343.313538 702.951599,345.761292 702.946777,348.670410 
	C702.810364,346.608978 702.691711,344.086090 702.749451,341.214539 
z"/>
<path fill="#CA8642" opacity="1.000000" stroke="none" 
	d="
M666.400146,295.997253 
	C666.091309,295.360870 666.073181,294.603119 666.074951,293.470032 
	C666.826050,293.084595 667.557434,293.074493 668.654541,293.090637 
	C668.243896,294.036560 667.467407,294.956238 666.400146,295.997253 
z"/>
<path fill="#CA8642" opacity="1.000000" stroke="none" 
	d="
M813.257263,376.164520 
	C813.867676,375.888977 814.696289,375.775635 815.740967,375.831360 
	C815.129822,376.109192 814.302612,376.217957 813.257263,376.164520 
z"/>
<path fill="#CA8642" opacity="1.000000" stroke="none" 
	d="
M901.616089,323.986023 
	C901.874268,324.666412 901.894958,325.500793 901.883301,326.752869 
	C901.693481,326.160400 901.536011,325.150208 901.616089,323.986023 
z"/>
<path fill="#CA8642" opacity="1.000000" stroke="none" 
	d="
M702.802063,355.232117 
	C703.259644,355.831757 703.573242,356.673584 703.876038,357.866211 
	C703.462891,357.302795 703.060486,356.388519 702.802063,355.232117 
z"/>
<path fill="#CA8642" opacity="1.000000" stroke="none" 
	d="
M901.715942,411.205780 
	C901.897522,412.346405 901.916016,413.789551 901.907837,415.666016 
	C901.771790,414.569000 901.662354,413.038635 901.715942,411.205780 
z"/>
<path fill="#CE873A" opacity="1.000000" stroke="none" 
	d="
M865.115845,406.709473 
	C864.675354,406.161499 864.380188,405.417206 864.081421,404.362762 
	C864.472229,404.872772 864.866699,405.692963 865.115845,406.709473 
z"/>
<path fill="#CA8642" opacity="1.000000" stroke="none" 
	d="
M702.035034,294.414185 
	C702.341736,295.170746 702.646545,296.277435 702.940552,297.744934 
	C702.630859,296.991913 702.332031,295.878113 702.035034,294.414185 
z"/>
<path fill="#CE873A" opacity="1.000000" stroke="none" 
	d="
M863.346802,445.888092 
	C863.301208,445.469574 863.466064,444.981110 863.802856,444.299316 
	C863.835571,444.676697 863.696411,445.247406 863.346802,445.888092 
z"/>
<path fill="#CA8642" opacity="1.000000" stroke="none" 
	d="
M861.719788,484.929504 
	C861.421509,485.308289 860.945923,485.561554 860.195679,485.846130 
	C860.461487,485.519653 861.001953,485.161835 861.719788,484.929504 
z"/>
<path fill="#CE873A" opacity="1.000000" stroke="none" 
	d="
M850.233032,458.132996 
	C850.539307,457.746063 851.040527,457.473724 851.831604,457.169312 
	C851.556946,457.507385 850.992554,457.877472 850.233032,458.132996 
z"/>
<path fill="#D28E4C" opacity="1.000000" stroke="none" 
	d="
M858.679688,485.979919 
	C858.295532,486.281982 857.511658,486.571991 856.355225,486.684326 
	C855.982666,486.506683 855.894470,486.103638 855.894470,486.103638 
	C856.689636,486.058350 857.484863,486.013092 858.679688,485.979919 
z"/>
<path fill="#CA8642" opacity="1.000000" stroke="none" 
	d="
M855.620667,486.142090 
	C855.894470,486.103638 855.982666,486.506683 856.037354,486.705078 
	C855.589966,486.908020 855.087952,486.912567 854.208740,486.894409 
	C854.336670,486.641327 854.841736,486.410919 855.620667,486.142090 
z"/>
<path fill="#CA8642" opacity="1.000000" stroke="none" 
	d="
M901.753296,406.099518 
	C901.885681,406.384003 901.897827,406.876129 901.891357,407.737549 
	C901.792908,407.506958 901.713013,406.907074 901.753296,406.099518 
z"/>
<path fill="#CA8642" opacity="1.000000" stroke="none" 
	d="
M897.753418,455.971741 
	C897.781799,456.087280 897.612244,456.356049 897.240906,456.771118 
	C897.220581,456.658600 897.392639,456.394470 897.753418,455.971741 
z"/>
<path fill="#D28E4C" opacity="1.000000" stroke="none" 
	d="
M675.444458,381.723602 
	C675.398926,381.608765 675.536865,381.409027 675.843140,381.107330 
	C675.893250,381.219543 675.765381,381.430634 675.444458,381.723602 
z"/>
<path fill="#CE873A" opacity="1.000000" stroke="none" 
	d="
M857.240967,453.880890 
	C857.239258,453.766052 857.455383,453.539062 857.894470,453.205597 
	C857.890259,453.315765 857.670715,453.538971 857.240967,453.880890 
z"/>
<path fill="#CE873A" opacity="1.000000" stroke="none" 
	d="
M856.219116,454.862030 
	C856.219299,454.753479 856.427551,454.531555 856.839111,454.190948 
	C856.846008,454.305023 856.640991,454.530487 856.219116,454.862030 
z"/>
<path fill="#CE873A" opacity="1.000000" stroke="none" 
	d="
M853.251221,456.822296 
	C853.254944,456.710907 853.474243,456.501099 853.913086,456.195435 
	C853.907288,456.304596 853.685303,456.512665 853.251221,456.822296 
z"/>
<path fill="#F09026" opacity="1.000000" stroke="none" 
	d="
M137.984711,442.000000 
	C137.979126,394.858948 137.968597,348.217926 137.975021,301.576874 
	C137.976044,294.165222 138.234848,293.933685 145.505814,293.933136 
	C203.473923,293.928711 261.443970,293.691376 319.408020,294.175934 
	C328.121674,294.248810 337.554260,296.147247 345.353455,299.902710 
	C362.752869,308.280792 370.725525,323.822723 371.909393,342.671234 
	C372.709167,355.404541 371.561493,367.992676 364.548309,379.285004 
	C354.125641,396.067291 338.186707,402.809998 319.334534,402.946259 
	C275.360931,403.264099 231.383560,403.055542 187.407700,403.060822 
	C185.408813,403.061066 183.408752,403.023834 181.411255,403.078308 
	C174.849243,403.257294 173.097855,404.971466 173.088684,411.465363 
	C173.057602,433.453247 173.079041,455.441193 173.072327,477.429138 
	C173.069702,486.039246 173.059952,486.043243 164.499115,486.049927 
	C157.836121,486.055115 151.170807,485.941040 144.510925,486.084167 
	C139.835251,486.184601 137.897537,484.134247 137.944275,479.478546 
	C138.068024,467.153473 137.985703,454.826324 137.984711,442.000000 
M176.013855,374.960144 
	C176.013855,374.960144 176.177170,374.805969 176.454422,375.518311 
	C178.295563,375.991821 180.131180,376.847900 181.978775,376.874542 
	C191.475769,377.011536 200.975830,376.934296 210.474823,376.933960 
	C244.471207,376.932800 278.467651,376.967987 312.463959,376.914307 
	C325.989197,376.892975 333.500763,371.948975 336.000336,359.302032 
	C337.442352,352.005920 337.223480,343.901459 335.669739,336.604218 
	C333.245605,325.219086 325.648499,320.103668 313.972900,320.089050 
	C269.644348,320.033600 225.315704,320.062592 180.987137,320.094482 
	C175.297516,320.098572 173.211441,321.898163 173.150558,327.404510 
	C173.008728,340.234497 172.941940,353.072296 173.280045,365.895447 
	C173.359055,368.891815 175.170319,371.842529 176.013855,374.960144 
z"/>
<path fill="#040201" opacity="1.000000" stroke="none" 
	d="
M452.796722,454.340698 
	C443.702271,444.581390 442.177368,421.935822 449.704254,411.460175 
	C453.497192,406.181305 458.821808,403.875092 465.206299,403.851501 
	C479.365997,403.799164 493.525818,403.759796 507.685608,403.754272 
	C534.506287,403.743835 561.327820,403.866119 588.146973,403.666992 
	C592.815002,403.632355 594.141724,405.139099 593.968079,409.630829 
	C593.652954,417.781555 594.084900,425.961029 593.774841,434.112122 
	C593.618652,438.220093 593.068970,442.481873 591.736023,446.342285 
	C588.671997,455.215942 583.339966,458.796356 573.971985,458.811432 
	C537.989075,458.869385 502.004669,458.990387 466.024597,458.667084 
	C461.692657,458.628143 457.383820,456.020538 452.796722,454.340698 
z"/>
<path fill="#CA8642" opacity="1.000000" stroke="none" 
	d="
M176.184570,374.814240 
	C175.170319,371.842529 173.359055,368.891815 173.280045,365.895447 
	C172.941940,353.072296 173.008728,340.234497 173.150558,327.404510 
	C173.211441,321.898163 175.297516,320.098572 180.987137,320.094482 
	C225.315704,320.062592 269.644348,320.033600 313.972900,320.089050 
	C325.648499,320.103668 333.245605,325.219086 335.669739,336.604218 
	C337.223480,343.901459 337.442352,352.005920 336.000336,359.302032 
	C333.500763,371.948975 325.989197,376.892975 312.463959,376.914307 
	C278.467651,376.967987 244.471207,376.932800 210.474823,376.933960 
	C200.975830,376.934296 191.475769,377.011536 181.978775,376.874542 
	C180.131180,376.847900 178.295563,375.991821 176.719482,375.159424 
	C178.799866,374.648987 180.614929,374.368774 182.430496,374.365509 
	C204.591171,374.325592 226.751923,374.327881 248.912643,374.316071 
	C270.906677,374.304352 292.901093,374.363525 314.894531,374.243134 
	C325.456390,374.185333 331.709991,369.777344 333.395142,359.690521 
	C334.577423,352.613678 334.673004,345.036560 333.524323,337.963776 
	C331.806122,327.384338 325.288239,322.478302 314.646759,322.458374 
	C269.825714,322.374481 225.004288,322.480560 180.183167,322.407593 
	C176.413742,322.401459 175.327896,323.825134 175.367935,327.423981 
	C175.525513,341.585205 175.427383,355.749146 175.493683,369.911713 
	C175.501343,371.546936 175.943726,373.180115 176.184570,374.814240 
z"/>
<path fill="#060201" opacity="1.000000" stroke="none" 
	d="
M176.099213,374.887207 
	C175.943726,373.180115 175.501343,371.546936 175.493683,369.911713 
	C175.427383,355.749146 175.525513,341.585205 175.367935,327.423981 
	C175.327896,323.825134 176.413742,322.401459 180.183167,322.407593 
	C225.004288,322.480560 269.825714,322.374481 314.646759,322.458374 
	C325.288239,322.478302 331.806122,327.384338 333.524323,337.963776 
	C334.673004,345.036560 334.577423,352.613678 333.395142,359.690521 
	C331.709991,369.777344 325.456390,374.185333 314.894531,374.243134 
	C292.901093,374.363525 270.906677,374.304352 248.912643,374.316071 
	C226.751923,374.327881 204.591171,374.325592 182.430496,374.365509 
	C180.614929,374.368774 178.799866,374.648987 176.580872,374.803223 
	C176.177170,374.805969 176.013855,374.960144 176.099213,374.887207 
z"/>
</svg>